<?xml version="1.0" encoding="us-ascii" standalone="no"?><svg xmlns="http://www.w3.org/2000/svg" xmlns:xlink="http://www.w3.org/1999/xlink" contentStyleType="text/css" height="646px" preserveAspectRatio="none" style="width:222px;height:646px;background:#FFFFFF;" version="1.1" viewBox="0 0 222 646" width="222px" zoomAndPan="magnify"><defs/><g><!--class ib.grapher.Cell--><a href="Cell.html" target="_top" title="Cell.html" xlink:actuate="onRequest" xlink:href="Cell.html" xlink:show="new" xlink:title="Cell.html" xlink:type="simple"><g id="elem_ib.grapher.Cell"><rect codeLine="5" fill="#F1F1F1" height="515.9375" id="ib.grapher.Cell" rx="2.5" ry="2.5" style="stroke:#181818;stroke-width:0.5;" width="208" x="7" y="105.26"/><ellipse cx="81.75" cy="124.3928" fill="#ADD1B2" rx="11" ry="11" style="stroke:#181818;stroke-width:1.0;"/><path d="M84.2231,130.5359 Q83.6421,130.8347 83.0029,130.9841 Q82.3638,131.1335 81.6582,131.1335 Q79.1514,131.1335 77.8315,129.4817 Q76.5117,127.8298 76.5117,124.7087 Q76.5117,121.5793 77.8315,119.9275 Q79.1514,118.2756 81.6582,118.2756 Q82.3638,118.2756 83.0112,118.425 Q83.6587,118.5745 84.2231,118.8733 L84.2231,121.5959 Q83.5923,121.0149 82.9988,120.7451 Q82.4053,120.4753 81.7744,120.4753 Q80.4297,120.4753 79.7449,121.542 Q79.0601,122.6086 79.0601,124.7087 Q79.0601,126.8005 79.7449,127.8672 Q80.4297,128.9338 81.7744,128.9338 Q82.4053,128.9338 82.9988,128.6641 Q83.5923,128.3943 84.2231,127.8132 Z " fill="#000000"/><text fill="#000000" font-family="sans-serif" font-size="14" lengthAdjust="spacing" textLength="26" x="114.25" y="123.7952">Cell</text><text fill="#000000" font-family="sans-serif" font-size="10" lengthAdjust="spacing" textLength="50" x="102.25" y="136.4163">ib.grapher</text><line style="stroke:#181818;stroke-width:0.5;" x1="8" x2="214" y1="143.5256" y2="143.5256"/><rect fill="none" height="6" style="stroke:#C82930;stroke-width:1.0;" width="6" x="15" y="154.2698"/><text fill="#000000" font-family="sans-serif" font-size="14" lengthAdjust="spacing" textLength="119" x="27" y="161.0608">previousCell: Cell</text><rect fill="none" height="6" style="stroke:#C82930;stroke-width:1.0;" width="6" x="15" y="170.758"/><text fill="#000000" font-family="sans-serif" font-size="14" lengthAdjust="spacing" textLength="91" x="27" y="177.5491">nextCell: Cell</text><rect fill="none" height="6" style="stroke:#C82930;stroke-width:1.0;" width="6" x="15" y="187.2463"/><text fill="#000000" font-family="sans-serif" font-size="14" lengthAdjust="spacing" textLength="85" x="27" y="194.0373">value: String</text><rect fill="none" height="6" style="stroke:#C82930;stroke-width:1.0;" width="6" x="15" y="203.7346"/><text fill="#000000" font-family="sans-serif" font-size="14" lengthAdjust="spacing" textLength="65" x="27" y="210.5256">index: int</text><rect fill="none" height="6" style="stroke:#C82930;stroke-width:1.0;" width="6" x="15" y="220.2229"/><text fill="#000000" font-family="sans-serif" font-size="14" lengthAdjust="spacing" textLength="89" x="27" y="227.0139">series: Series</text><rect fill="none" height="6" style="stroke:#C82930;stroke-width:1.0;" width="6" x="15" y="236.7112"/><text fill="#000000" font-family="sans-serif" font-size="14" lengthAdjust="spacing" textLength="136" x="27" y="243.5022">textField: JTextField</text><line style="stroke:#181818;stroke-width:0.5;" x1="8" x2="214" y1="250.4553" y2="250.4553"/><ellipse cx="18" cy="264.1995" fill="#84BE84" rx="3" ry="3" style="stroke:#038048;stroke-width:1.0;"/><text fill="#000000" font-family="sans-serif" font-size="14" lengthAdjust="spacing" textLength="36" x="27" y="267.9905">Cell()</text><ellipse cx="18" cy="280.6877" fill="#84BE84" rx="3" ry="3" style="stroke:#038048;stroke-width:1.0;"/><text fill="#000000" font-family="sans-serif" font-size="14" lengthAdjust="spacing" textLength="77" x="27" y="284.4788">Cell(String)</text><ellipse cx="18" cy="297.176" fill="#84BE84" rx="3" ry="3" style="stroke:#038048;stroke-width:1.0;"/><text fill="#000000" font-family="sans-serif" font-size="14" lengthAdjust="spacing" textLength="114" x="27" y="300.967">doUpdate(): void</text><ellipse cx="18" cy="313.6643" fill="#84BE84" rx="3" ry="3" style="stroke:#038048;stroke-width:1.0;"/><text fill="#000000" font-family="sans-serif" font-size="14" lengthAdjust="spacing" textLength="77" x="27" y="317.4553">save(): void</text><ellipse cx="18" cy="330.1526" fill="#84BE84" rx="3" ry="3" style="stroke:#038048;stroke-width:1.0;"/><text fill="#000000" font-family="sans-serif" font-size="14" lengthAdjust="spacing" textLength="139" x="27" y="333.9436">paintSelected(): void</text><ellipse cx="18" cy="346.6409" fill="#84BE84" rx="3" ry="3" style="stroke:#038048;stroke-width:1.0;"/><text fill="#000000" font-family="sans-serif" font-size="14" lengthAdjust="spacing" textLength="156" x="27" y="350.4319">paintDeselected(): void</text><ellipse cx="18" cy="363.1291" fill="#84BE84" rx="3" ry="3" style="stroke:#038048;stroke-width:1.0;"/><text fill="#000000" font-family="sans-serif" font-size="14" lengthAdjust="spacing" textLength="145" x="27" y="366.9202">paintSearched(): void</text><ellipse cx="18" cy="379.6174" fill="#84BE84" rx="3" ry="3" style="stroke:#038048;stroke-width:1.0;"/><text fill="#000000" font-family="sans-serif" font-size="14" lengthAdjust="spacing" textLength="145" x="27" y="383.4084">getNumeric(): double</text><ellipse cx="18" cy="396.1057" fill="#84BE84" rx="3" ry="3" style="stroke:#038048;stroke-width:1.0;"/><text fill="#000000" font-family="sans-serif" font-size="14" lengthAdjust="spacing" textLength="182" x="27" y="399.8967">insertCellBefore(Cell): void</text><ellipse cx="18" cy="412.594" fill="#84BE84" rx="3" ry="3" style="stroke:#038048;stroke-width:1.0;"/><text fill="#000000" font-family="sans-serif" font-size="14" lengthAdjust="spacing" textLength="172" x="27" y="416.385">insertCellAfter(Cell): void</text><ellipse cx="18" cy="429.0823" fill="#84BE84" rx="3" ry="3" style="stroke:#038048;stroke-width:1.0;"/><text fill="#000000" font-family="sans-serif" font-size="14" lengthAdjust="spacing" textLength="98" x="27" y="432.8733">remove(): void</text><ellipse cx="18" cy="445.5705" fill="#84BE84" rx="3" ry="3" style="stroke:#038048;stroke-width:1.0;"/><text fill="#000000" font-family="sans-serif" font-size="14" lengthAdjust="spacing" textLength="144" x="27" y="449.3616">swapWithNext(): void</text><ellipse cx="18" cy="462.0588" fill="#84BE84" rx="3" ry="3" style="stroke:#038048;stroke-width:1.0;"/><text fill="#000000" font-family="sans-serif" font-size="14" lengthAdjust="spacing" textLength="124" x="27" y="465.8498">getPrevious(): Cell</text><ellipse cx="18" cy="478.5471" fill="#84BE84" rx="3" ry="3" style="stroke:#038048;stroke-width:1.0;"/><text fill="#000000" font-family="sans-serif" font-size="14" lengthAdjust="spacing" textLength="151" x="27" y="482.3381">setPrevious(Cell): void</text><ellipse cx="18" cy="495.0354" fill="#84BE84" rx="3" ry="3" style="stroke:#038048;stroke-width:1.0;"/><text fill="#000000" font-family="sans-serif" font-size="14" lengthAdjust="spacing" textLength="98" x="27" y="498.8264">getNext(): Cell</text><ellipse cx="18" cy="511.5237" fill="#84BE84" rx="3" ry="3" style="stroke:#038048;stroke-width:1.0;"/><text fill="#000000" font-family="sans-serif" font-size="14" lengthAdjust="spacing" textLength="125" x="27" y="515.3147">setNext(Cell): void</text><ellipse cx="18" cy="528.012" fill="#84BE84" rx="3" ry="3" style="stroke:#038048;stroke-width:1.0;"/><text fill="#000000" font-family="sans-serif" font-size="14" lengthAdjust="spacing" textLength="119" x="27" y="531.803">getValue(): String</text><ellipse cx="18" cy="544.5002" fill="#84BE84" rx="3" ry="3" style="stroke:#038048;stroke-width:1.0;"/><text fill="#000000" font-family="sans-serif" font-size="14" lengthAdjust="spacing" textLength="146" x="27" y="548.2913">setValue(String): void</text><ellipse cx="18" cy="560.9885" fill="#84BE84" rx="3" ry="3" style="stroke:#038048;stroke-width:1.0;"/><text fill="#000000" font-family="sans-serif" font-size="14" lengthAdjust="spacing" textLength="97" x="27" y="564.7795">getIndex(): int</text><ellipse cx="18" cy="577.4768" fill="#84BE84" rx="3" ry="3" style="stroke:#038048;stroke-width:1.0;"/><text fill="#000000" font-family="sans-serif" font-size="14" lengthAdjust="spacing" textLength="124" x="27" y="581.2678">setIndex(int): void</text><ellipse cx="18" cy="593.9651" fill="#84BE84" rx="3" ry="3" style="stroke:#038048;stroke-width:1.0;"/><text fill="#000000" font-family="sans-serif" font-size="14" lengthAdjust="spacing" textLength="122" x="27" y="597.7561">getSeries(): Series</text><ellipse cx="18" cy="610.4534" fill="#84BE84" rx="3" ry="3" style="stroke:#038048;stroke-width:1.0;"/><text fill="#000000" font-family="sans-serif" font-size="14" lengthAdjust="spacing" textLength="149" x="27" y="614.2444">setSeries(Series): void</text></g></a><!--class javax.swing.JPanel--><g id="elem_javax.swing.JPanel"><rect codeLine="36" fill="#F1F1F1" height="38.2656" id="javax.swing.JPanel" rx="2.5" ry="2.5" style="stroke:#181818;stroke-width:0.5;" width="89" x="66.5" y="7"/><ellipse cx="81.5" cy="26.1328" fill="#ADD1B2" rx="11" ry="11" style="stroke:#181818;stroke-width:1.0;"/><path d="M83.9731,32.2759 Q83.3921,32.5747 82.7529,32.7241 Q82.1138,32.8735 81.4082,32.8735 Q78.9014,32.8735 77.5815,31.2217 Q76.2617,29.5698 76.2617,26.4487 Q76.2617,23.3193 77.5815,21.6675 Q78.9014,20.0156 81.4082,20.0156 Q82.1138,20.0156 82.7612,20.165 Q83.4087,20.3145 83.9731,20.6133 L83.9731,23.3359 Q83.3423,22.7549 82.7488,22.4851 Q82.1553,22.2153 81.5244,22.2153 Q80.1797,22.2153 79.4949,23.282 Q78.8101,24.3486 78.8101,26.4487 Q78.8101,28.5405 79.4949,29.6072 Q80.1797,30.6738 81.5244,30.6738 Q82.1553,30.6738 82.7488,30.4041 Q83.3423,30.1343 83.9731,29.5532 Z " fill="#000000"/><text fill="#000000" font-family="sans-serif" font-size="14" lengthAdjust="spacing" textLength="41" x="103.5" y="25.5352">JPanel</text><text fill="#000000" font-family="sans-serif" font-size="10" lengthAdjust="spacing" textLength="57" x="95.5" y="38.1563">javax.swing</text></g><!--reverse link javax.swing.JPanel to ib.grapher.Cell--><g id="link_javax.swing.JPanel_ib.grapher.Cell"><path codeLine="38" d="M111,63.62 C111,77.55 111,80.4 111,104.87 " fill="none" id="javax.swing.JPanel-backto-ib.grapher.Cell" style="stroke:#181818;stroke-width:1.0;"/><polygon fill="none" points="111,45.62,105,63.62,117,63.62,111,45.62" style="stroke:#181818;stroke-width:1.0;"/></g><text fill="#888888" font-family="sans-serif" font-size="10" lengthAdjust="spacing" textLength="176" x="16" y="636.8655">UMLDoclet 2.1.2, PlantUML 1.2024.3</text><!--SRC=[VLHDRzim3BtlLn051YHeOwp5JaPHe5inOCLM1CYw7ReUMFibrY1BXgIusTT_dsXxivkeyy4ot-CZHOaq4P578CCrVCC5LcZOSR2EZ3Lu4McgL0b2tOJlj5RGfTz7QuJAHhZ32ytUqz6vLp-Gdxw-U0kjlvh1V7MX7hADuwQ2EoBsD9gPEDBTdInP5MfzVqy_kuZoB1g7Ljcj5pedUO-SmIway9Rr5ZcjWbDcCyBAbDZbf4mOCG-duADljuvuYA7VIT4vNN_w-_sFFfPyi_cUtUUReAMzRKeEcCrpQgsQw3st2RJXkBSLD8g0yXdw2lx_3YkmAweKlK6usTQnq4AuqcuVD4PMcNWMtN6-mTewpEJp8CReTRaES6adXzgcwlEFt7nHeRg91vhStdAuR26VNEcndv39d5BS4FP0sH7FgJvBiuXihrr4s7F3lIQqxwMZH3ljAH7sH4HJghxNkfHFkqwK0zalK_Nlz9XTBzbWEcZVkELTvX_Zbhj9czXPxzm7EiJf_DTYiJ-PVLAOUDcqjbQMsuyVhcoXuz_ZB3lDpavegTc4YDBB5iuhQsRpFm00]--></g></svg>