<?xml version="1.0" encoding="us-ascii" standalone="no"?><svg xmlns="http://www.w3.org/2000/svg" xmlns:xlink="http://www.w3.org/1999/xlink" contentStyleType="text/css" height="1191px" preserveAspectRatio="none" style="width:337px;height:1191px;background:#FFFFFF;" version="1.1" viewBox="0 0 337 1191" width="337px" zoomAndPan="magnify"><defs/><g><!--class ib.grapher.DataTable--><a href="DataTable.html" target="_top" title="DataTable.html" xlink:actuate="onRequest" xlink:href="DataTable.html" xlink:show="new" xlink:title="DataTable.html" xlink:type="simple"><g id="elem_ib.grapher.DataTable"><rect codeLine="5" fill="#F1F1F1" height="1060.0508" id="ib.grapher.DataTable" rx="2.5" ry="2.5" style="stroke:#181818;stroke-width:0.5;" width="323" x="7" y="105.27"/><ellipse cx="129.75" cy="124.4028" fill="#ADD1B2" rx="11" ry="11" style="stroke:#181818;stroke-width:1.0;"/><path d="M132.2231,130.5459 Q131.6421,130.8447 131.0029,130.9941 Q130.3638,131.1435 129.6582,131.1435 Q127.1514,131.1435 125.8315,129.4917 Q124.5117,127.8398 124.5117,124.7187 Q124.5117,121.5893 125.8315,119.9375 Q127.1514,118.2856 129.6582,118.2856 Q130.3638,118.2856 131.0112,118.435 Q131.6587,118.5845 132.2231,118.8833 L132.2231,121.6059 Q131.5923,121.0249 130.9988,120.7551 Q130.4053,120.4853 129.7744,120.4853 Q128.4297,120.4853 127.7449,121.552 Q127.0601,122.6186 127.0601,124.7187 Q127.0601,126.8105 127.7449,127.8772 Q128.4297,128.9438 129.7744,128.9438 Q130.4053,128.9438 130.9988,128.6741 Q131.5923,128.4043 132.2231,127.8232 Z " fill="#000000"/><text fill="#000000" font-family="sans-serif" font-size="14" lengthAdjust="spacing" textLength="69" x="150.25" y="123.8052">DataTable</text><text fill="#000000" font-family="sans-serif" font-size="10" lengthAdjust="spacing" textLength="50" x="159.75" y="136.4262">ib.grapher</text><line style="stroke:#181818;stroke-width:0.5;" x1="8" x2="329" y1="143.5356" y2="143.5356"/><rect fill="none" height="6" style="stroke:#C82930;stroke-width:1.0;" width="6" x="15" y="154.2798"/><text fill="#000000" font-family="sans-serif" font-size="14" lengthAdjust="spacing" text-decoration="underline" textLength="203" x="27" y="161.0708">STAT_VIEW_TEMPLATE: String</text><rect fill="none" height="6" style="stroke:#C82930;stroke-width:1.0;" width="6" x="15" y="170.768"/><text fill="#000000" font-family="sans-serif" font-size="14" lengthAdjust="spacing" textLength="124" x="27" y="177.5591">data: List&lt;Series&gt;</text><rect fill="none" height="6" style="stroke:#C82930;stroke-width:1.0;" width="6" x="15" y="187.2563"/><text fill="#000000" font-family="sans-serif" font-size="14" lengthAdjust="spacing" textLength="151" x="27" y="194.0473">activeCells: List&lt;Cell&gt;</text><rect fill="none" height="6" style="stroke:#C82930;stroke-width:1.0;" width="6" x="15" y="203.7446"/><text fill="#000000" font-family="sans-serif" font-size="14" lengthAdjust="spacing" textLength="116" x="27" y="210.5356">selectedCell: Cell</text><rect fill="none" height="6" style="stroke:#C82930;stroke-width:1.0;" width="6" x="15" y="220.2329"/><text fill="#000000" font-family="sans-serif" font-size="14" lengthAdjust="spacing" textLength="180" x="27" y="227.0239">searchMatches: List&lt;Cell&gt;</text><rect fill="none" height="6" style="stroke:#C82930;stroke-width:1.0;" width="6" x="15" y="236.7212"/><text fill="#000000" font-family="sans-serif" font-size="14" lengthAdjust="spacing" textLength="110" x="27" y="243.5122">searchIndex: int</text><rect fill="none" height="6" style="stroke:#C82930;stroke-width:1.0;" width="6" x="15" y="253.2095"/><text fill="#000000" font-family="sans-serif" font-size="14" lengthAdjust="spacing" textLength="74" x="27" y="260.0005">title: JLabel</text><rect fill="none" height="6" style="stroke:#C82930;stroke-width:1.0;" width="6" x="15" y="269.6977"/><text fill="#000000" font-family="sans-serif" font-size="14" lengthAdjust="spacing" textLength="97" x="27" y="276.4888">header: JPanel</text><rect fill="none" height="6" style="stroke:#C82930;stroke-width:1.0;" width="6" x="15" y="286.186"/><text fill="#000000" font-family="sans-serif" font-size="14" lengthAdjust="spacing" textLength="200" x="27" y="292.977">headerLayout: GridBagLayout</text><rect fill="none" height="6" style="stroke:#C82930;stroke-width:1.0;" width="6" x="15" y="302.6743"/><text fill="#000000" font-family="sans-serif" font-size="14" lengthAdjust="spacing" textLength="90" x="27" y="309.4653">fillerH: JPanel</text><rect fill="none" height="6" style="stroke:#C82930;stroke-width:1.0;" width="6" x="15" y="319.1626"/><text fill="#000000" font-family="sans-serif" font-size="14" lengthAdjust="spacing" textLength="83" x="27" y="325.9536">table: JPanel</text><rect fill="none" height="6" style="stroke:#C82930;stroke-width:1.0;" width="6" x="15" y="335.6509"/><text fill="#000000" font-family="sans-serif" font-size="14" lengthAdjust="spacing" textLength="186" x="27" y="342.4419">tableLayout: GridBagLayout</text><rect fill="none" height="6" style="stroke:#C82930;stroke-width:1.0;" width="6" x="15" y="352.1391"/><text fill="#000000" font-family="sans-serif" font-size="14" lengthAdjust="spacing" textLength="89" x="27" y="358.9302">fillerT: JPanel</text><rect fill="none" height="6" style="stroke:#C82930;stroke-width:1.0;" width="6" x="15" y="368.6274"/><text fill="#000000" font-family="sans-serif" font-size="14" lengthAdjust="spacing" textLength="137" x="27" y="375.4184">rowNumbers: JPanel</text><rect fill="none" height="6" style="stroke:#C82930;stroke-width:1.0;" width="6" x="15" y="385.1157"/><text fill="#000000" font-family="sans-serif" font-size="14" lengthAdjust="spacing" textLength="98" x="27" y="391.9067">rnFiller: JPanel</text><rect fill="none" height="6" style="stroke:#C82930;stroke-width:1.0;" width="6" x="15" y="401.604"/><text fill="#000000" font-family="sans-serif" font-size="14" lengthAdjust="spacing" textLength="132" x="27" y="408.395">statView: JTextArea</text><rect fill="none" height="6" style="stroke:#C82930;stroke-width:1.0;" width="6" x="15" y="418.0923"/><text fill="#000000" font-family="sans-serif" font-size="14" lengthAdjust="spacing" textLength="218" x="27" y="424.8833">tableLayeredPane: JLayeredPane</text><rect fill="none" height="6" style="stroke:#C82930;stroke-width:1.0;" width="6" x="15" y="434.5805"/><text fill="#000000" font-family="sans-serif" font-size="14" lengthAdjust="spacing" textLength="98" x="27" y="441.3716">overlay: JPanel</text><rect fill="none" height="6" style="stroke:#C82930;stroke-width:1.0;" width="6" x="15" y="451.0688"/><text fill="#000000" font-family="sans-serif" font-size="14" lengthAdjust="spacing" textLength="121" x="27" y="457.8598">insertLeft: JButton</text><rect fill="none" height="6" style="stroke:#C82930;stroke-width:1.0;" width="6" x="15" y="467.5571"/><text fill="#000000" font-family="sans-serif" font-size="14" lengthAdjust="spacing" textLength="132" x="27" y="474.3481">insertRight: JButton</text><rect fill="none" height="6" style="stroke:#C82930;stroke-width:1.0;" width="6" x="15" y="484.0454"/><text fill="#000000" font-family="sans-serif" font-size="14" lengthAdjust="spacing" textLength="115" x="27" y="490.8364">insertUp: JButton</text><rect fill="none" height="6" style="stroke:#C82930;stroke-width:1.0;" width="6" x="15" y="500.5337"/><text fill="#000000" font-family="sans-serif" font-size="14" lengthAdjust="spacing" textLength="135" x="27" y="507.3247">insertDown: JButton</text><rect fill="none" height="6" style="stroke:#C82930;stroke-width:1.0;" width="6" x="15" y="517.022"/><text fill="#000000" font-family="sans-serif" font-size="14" lengthAdjust="spacing" textLength="133" x="27" y="523.813">panelSearch: JPanel</text><rect fill="none" height="6" style="stroke:#C82930;stroke-width:1.0;" width="6" x="15" y="533.5102"/><text fill="#000000" font-family="sans-serif" font-size="14" lengthAdjust="spacing" textLength="124" x="27" y="540.3013">searchInit: JButton</text><rect fill="none" height="6" style="stroke:#C82930;stroke-width:1.0;" width="6" x="15" y="549.9985"/><text fill="#000000" font-family="sans-serif" font-size="14" lengthAdjust="spacing" textLength="134" x="27" y="556.7895">searchNext: JButton</text><rect fill="none" height="6" style="stroke:#C82930;stroke-width:1.0;" width="6" x="15" y="566.4868"/><text fill="#000000" font-family="sans-serif" font-size="14" lengthAdjust="spacing" textLength="148" x="27" y="573.2778">searchCancel: JButton</text><line style="stroke:#181818;stroke-width:0.5;" x1="8" x2="329" y1="580.2309" y2="580.2309"/><ellipse cx="18" cy="593.9751" fill="#84BE84" rx="3" ry="3" style="stroke:#038048;stroke-width:1.0;"/><text fill="#000000" font-family="sans-serif" font-size="14" lengthAdjust="spacing" textLength="114" x="27" y="597.7661">doUpdate(): void</text><ellipse cx="18" cy="610.4634" fill="#84BE84" rx="3" ry="3" style="stroke:#038048;stroke-width:1.0;"/><text fill="#000000" font-family="sans-serif" font-size="14" lengthAdjust="spacing" textLength="80" x="27" y="614.2544">clear(): void</text><ellipse cx="18" cy="626.9516" fill="#84BE84" rx="3" ry="3" style="stroke:#038048;stroke-width:1.0;"/><text fill="#000000" font-family="sans-serif" font-size="14" lengthAdjust="spacing" textLength="200" x="27" y="630.7427">sortBySelectedColumn(): void</text><ellipse cx="18" cy="643.4399" fill="#84BE84" rx="3" ry="3" style="stroke:#038048;stroke-width:1.0;"/><text fill="#000000" font-family="sans-serif" font-size="14" lengthAdjust="spacing" textLength="183" x="27" y="647.2309">searchAndHighlight(): void</text><ellipse cx="18" cy="659.9282" fill="#84BE84" rx="3" ry="3" style="stroke:#038048;stroke-width:1.0;"/><text fill="#000000" font-family="sans-serif" font-size="14" lengthAdjust="spacing" textLength="222" x="27" y="663.7192">scrollToNextSearchResult(): void</text><ellipse cx="18" cy="676.4165" fill="#84BE84" rx="3" ry="3" style="stroke:#038048;stroke-width:1.0;"/><text fill="#000000" font-family="sans-serif" font-size="14" lengthAdjust="spacing" textLength="119" x="27" y="680.2075">endSearch(): void</text><ellipse cx="18" cy="692.9048" fill="#84BE84" rx="3" ry="3" style="stroke:#038048;stroke-width:1.0;"/><text fill="#000000" font-family="sans-serif" font-size="14" lengthAdjust="spacing" textLength="217" x="27" y="696.6958">getSeriesByName(String): Series</text><ellipse cx="18" cy="709.393" fill="#84BE84" rx="3" ry="3" style="stroke:#038048;stroke-width:1.0;"/><text fill="#000000" font-family="sans-serif" font-size="14" lengthAdjust="spacing" textLength="155" x="27" y="713.1841">addSeries(Series): void</text><ellipse cx="18" cy="725.8813" fill="#84BE84" rx="3" ry="3" style="stroke:#038048;stroke-width:1.0;"/><text fill="#000000" font-family="sans-serif" font-size="14" lengthAdjust="spacing" textLength="194" x="27" y="729.6723">insertSeries(int, Series): void</text><ellipse cx="18" cy="742.3696" fill="#84BE84" rx="3" ry="3" style="stroke:#038048;stroke-width:1.0;"/><text fill="#000000" font-family="sans-serif" font-size="14" lengthAdjust="spacing" textLength="180" x="27" y="746.1606">removeSeries(Series): void</text><rect fill="#F24D5C" height="6" style="stroke:#C82930;stroke-width:1.0;" width="6" x="15" y="755.8579"/><text fill="#000000" font-family="sans-serif" font-size="14" lengthAdjust="spacing" textLength="157" x="27" y="762.6489">addRowNumber(): void</text><rect fill="#F24D5C" height="6" style="stroke:#C82930;stroke-width:1.0;" width="6" x="15" y="772.3462"/><text fill="#000000" font-family="sans-serif" font-size="14" lengthAdjust="spacing" textLength="182" x="27" y="779.1372">removeRowNumber(): void</text><ellipse cx="18" cy="791.8345" fill="#84BE84" rx="3" ry="3" style="stroke:#038048;stroke-width:1.0;"/><text fill="#000000" font-family="sans-serif" font-size="14" lengthAdjust="spacing" textLength="155" x="27" y="795.6255">resetActiveCells(): void</text><ellipse cx="18" cy="808.3227" fill="#84BE84" rx="3" ry="3" style="stroke:#038048;stroke-width:1.0;"/><text fill="#000000" font-family="sans-serif" font-size="14" lengthAdjust="spacing" textLength="201" x="27" y="812.1138">rollActiveCellsForward(): void</text><ellipse cx="18" cy="824.811" fill="#84BE84" rx="3" ry="3" style="stroke:#038048;stroke-width:1.0;"/><text fill="#000000" font-family="sans-serif" font-size="14" lengthAdjust="spacing" textLength="209" x="27" y="828.602">rollActiveCellsBackward(): void</text><ellipse cx="18" cy="841.2993" fill="#84BE84" rx="3" ry="3" style="stroke:#038048;stroke-width:1.0;"/><text fill="#000000" font-family="sans-serif" font-size="14" lengthAdjust="spacing" textLength="205" x="27" y="845.0903">matchActiveToSelected(): void</text><ellipse cx="18" cy="857.7876" fill="#84BE84" rx="3" ry="3" style="stroke:#038048;stroke-width:1.0;"/><text fill="#000000" font-family="sans-serif" font-size="14" lengthAdjust="spacing" textLength="152" x="27" y="861.5786">insertSeriesLeft(): void</text><ellipse cx="18" cy="874.2759" fill="#84BE84" rx="3" ry="3" style="stroke:#038048;stroke-width:1.0;"/><text fill="#000000" font-family="sans-serif" font-size="14" lengthAdjust="spacing" textLength="163" x="27" y="878.0669">insertSeriesRight(): void</text><ellipse cx="18" cy="890.7641" fill="#84BE84" rx="3" ry="3" style="stroke:#038048;stroke-width:1.0;"/><text fill="#000000" font-family="sans-serif" font-size="14" lengthAdjust="spacing" textLength="158" x="27" y="894.5552">insertRowAbove(): void</text><ellipse cx="18" cy="907.2524" fill="#84BE84" rx="3" ry="3" style="stroke:#038048;stroke-width:1.0;"/><text fill="#000000" font-family="sans-serif" font-size="14" lengthAdjust="spacing" textLength="155" x="27" y="911.0434">insertRowBelow(): void</text><ellipse cx="18" cy="923.7407" fill="#84BE84" rx="3" ry="3" style="stroke:#038048;stroke-width:1.0;"/><text fill="#000000" font-family="sans-serif" font-size="14" lengthAdjust="spacing" textLength="130" x="27" y="927.5317">deleteSeries(): void</text><ellipse cx="18" cy="940.229" fill="#84BE84" rx="3" ry="3" style="stroke:#038048;stroke-width:1.0;"/><text fill="#000000" font-family="sans-serif" font-size="14" lengthAdjust="spacing" textLength="118" x="27" y="944.02">deleteRow(): void</text><ellipse cx="18" cy="956.7173" fill="#84BE84" rx="3" ry="3" style="stroke:#038048;stroke-width:1.0;"/><text fill="#000000" font-family="sans-serif" font-size="14" lengthAdjust="spacing" textLength="125" x="27" y="960.5083">addCell(Cell): void</text><ellipse cx="18" cy="973.2055" fill="#84BE84" rx="3" ry="3" style="stroke:#038048;stroke-width:1.0;"/><text fill="#000000" font-family="sans-serif" font-size="14" lengthAdjust="spacing" textLength="140" x="27" y="976.9966">getSeries(int): Series</text><ellipse cx="18" cy="989.6938" fill="#84BE84" rx="3" ry="3" style="stroke:#038048;stroke-width:1.0;"/><text fill="#000000" font-family="sans-serif" font-size="14" lengthAdjust="spacing" textLength="132" x="27" y="993.4848">indexOf(Series): int</text><ellipse cx="18" cy="1006.1821" fill="#84BE84" rx="3" ry="3" style="stroke:#038048;stroke-width:1.0;"/><text fill="#000000" font-family="sans-serif" font-size="14" lengthAdjust="spacing" textLength="297" x="27" y="1009.9731">setRowNumberBackground(int, Color): void</text><ellipse cx="18" cy="1022.6704" fill="#84BE84" rx="3" ry="3" style="stroke:#038048;stroke-width:1.0;"/><text fill="#000000" font-family="sans-serif" font-size="14" lengthAdjust="spacing" textLength="157" x="27" y="1026.4614">getData(): List&lt;Series&gt;</text><ellipse cx="18" cy="1039.1587" fill="#84BE84" rx="3" ry="3" style="stroke:#038048;stroke-width:1.0;"/><text fill="#000000" font-family="sans-serif" font-size="14" lengthAdjust="spacing" textLength="184" x="27" y="1042.9497">setData(List&lt;Series&gt;): void</text><ellipse cx="18" cy="1055.647" fill="#84BE84" rx="3" ry="3" style="stroke:#038048;stroke-width:1.0;"/><text fill="#000000" font-family="sans-serif" font-size="14" lengthAdjust="spacing" textLength="185" x="27" y="1059.438">getActiveCells(): List&lt;Cell&gt;</text><ellipse cx="18" cy="1072.1352" fill="#84BE84" rx="3" ry="3" style="stroke:#038048;stroke-width:1.0;"/><text fill="#000000" font-family="sans-serif" font-size="14" lengthAdjust="spacing" textLength="212" x="27" y="1075.9263">setActiveCells(List&lt;Cell&gt;): void</text><ellipse cx="18" cy="1088.6235" fill="#84BE84" rx="3" ry="3" style="stroke:#038048;stroke-width:1.0;"/><text fill="#000000" font-family="sans-serif" font-size="14" lengthAdjust="spacing" textLength="149" x="27" y="1092.4145">getSelectedCell(): Cell</text><ellipse cx="18" cy="1105.1118" fill="#84BE84" rx="3" ry="3" style="stroke:#038048;stroke-width:1.0;"/><text fill="#000000" font-family="sans-serif" font-size="14" lengthAdjust="spacing" textLength="176" x="27" y="1108.9028">setSelectedCell(Cell): void</text><ellipse cx="18" cy="1121.6001" fill="#84BE84" rx="3" ry="3" style="stroke:#038048;stroke-width:1.0;"/><text fill="#000000" font-family="sans-serif" font-size="14" lengthAdjust="spacing" textLength="213" x="27" y="1125.3911">getSearchMatches(): List&lt;Cell&gt;</text><ellipse cx="18" cy="1138.0884" fill="#84BE84" rx="3" ry="3" style="stroke:#038048;stroke-width:1.0;"/><text fill="#000000" font-family="sans-serif" font-size="14" lengthAdjust="spacing" textLength="143" x="27" y="1141.8794">getSearchIndex(): int</text><ellipse cx="18" cy="1154.5766" fill="#84BE84" rx="3" ry="3" style="stroke:#038048;stroke-width:1.0;"/><text fill="#000000" font-family="sans-serif" font-size="14" lengthAdjust="spacing" textLength="132" x="27" y="1158.3677">getTitleBar(): JLabel</text></g></a><!--class javax.swing.JFrame--><g id="elem_javax.swing.JFrame"><rect codeLine="69" fill="#F1F1F1" height="38.2656" id="javax.swing.JFrame" rx="2.5" ry="2.5" style="stroke:#181818;stroke-width:0.5;" width="89" x="124" y="7"/><ellipse cx="139" cy="26.1328" fill="#ADD1B2" rx="11" ry="11" style="stroke:#181818;stroke-width:1.0;"/><path d="M141.4731,32.2759 Q140.8921,32.5747 140.2529,32.7241 Q139.6138,32.8735 138.9082,32.8735 Q136.4014,32.8735 135.0815,31.2217 Q133.7617,29.5698 133.7617,26.4487 Q133.7617,23.3193 135.0815,21.6675 Q136.4014,20.0156 138.9082,20.0156 Q139.6138,20.0156 140.2612,20.165 Q140.9087,20.3145 141.4731,20.6133 L141.4731,23.3359 Q140.8423,22.7549 140.2488,22.4851 Q139.6553,22.2153 139.0244,22.2153 Q137.6797,22.2153 136.9949,23.282 Q136.3101,24.3486 136.3101,26.4487 Q136.3101,28.5405 136.9949,29.6072 Q137.6797,30.6738 139.0244,30.6738 Q139.6553,30.6738 140.2488,30.4041 Q140.8423,30.1343 141.4731,29.5532 Z " fill="#000000"/><text fill="#000000" font-family="sans-serif" font-size="14" lengthAdjust="spacing" textLength="47" x="158" y="25.5352">JFrame</text><text fill="#000000" font-family="sans-serif" font-size="10" lengthAdjust="spacing" textLength="57" x="153" y="38.1563">javax.swing</text></g><!--reverse link javax.swing.JFrame to ib.grapher.DataTable--><g id="link_javax.swing.JFrame_ib.grapher.DataTable"><path codeLine="71" d="M168.5,63.64 C168.5,77.2 168.5,79.61 168.5,104.8 " fill="none" id="javax.swing.JFrame-backto-ib.grapher.DataTable" style="stroke:#181818;stroke-width:1.0;"/><polygon fill="none" points="168.5,45.64,162.5,63.64,174.5,63.64,168.5,45.64" style="stroke:#181818;stroke-width:1.0;"/></g><text fill="#888888" font-family="sans-serif" font-size="10" lengthAdjust="spacing" textLength="176" x="73.5" y="1180.9888">UMLDoclet 2.1.2, PlantUML 1.2024.3</text><!--SRC=[ZLRVJzim47xVNs4XJUe4hGRQKuIG6duCK66e3Uo18UJ6ryQROqUssz8n_lUTuxO9ZTEj3sbyttTtpjtvpeGGOi0IINCm1KrX10NLr2fDf9Bm0M6ISGO4yi8koOI3O6PRceFD58fBUIgeCMJlsF3V41r-EJcZbYPqBE27NCa-d_1nRwffaO7U8zIGQjdRiCdZu-QzbzbSF3sHrzA1-xqQIorFtqXtbFIJvuUhy-_FoVdDtQ2Vd4TaP3MNqmsvoz1GH0RSsECHQ0xcfC9eQlaSJa48iwAuznh1W83K0dFYYBXd7QCwpMweJJDeLNUKAydW9I9SsWgnt0g8oFM0Zg5cCmFAGAFyZigcV42NQcOZybLp5jEfNrQa2HS2z6LJsxeujeZ_osRILDPgSJlBnw1D09CNfLeJSPbxuB10984NszT0c_i13SpfbU7Ph2gUceCMTDcqpgK1RGSmmU-vZcVMAhaD3laqQqVlYrReJ2ra02pS3aPbcWDVkqe_3tdqu2r6eHKyfJ85qOJtcReliAwXyoaYSyLPXQG2DPjYexIDbwDrDIinosM0LNhjItQ9KH8kKW5EgfKGYN8Rzzyz13CJ0IP8vWbDQ0hMdyLuUOkzf-FFBDAyj29Inhoeu_yQbdnoLXmyOGUaXQWXnxhPQQoBteRhicvikkijj1FG1JRJVjLI0WmCNOrmeVI2QlPFNapJNs5YxhgFPoPgdTxEpYYvux6RCGndVdM0rA8_nZZim6CGQj746MxFhZFGWWv3YfWM5uQEUxINaij-e8AuQxxV9bNAwsqOAzvk4kgYFDLg9fal93mbIeVykT7aTXcSASvaIQYZ8IjRXH8O7_jRvLHHmb6eHfKp-6vOELFl2Esnh0srjdrjUELawsm75U74ZRVOTwBQZ7iBtnAkBpHsWTeLuIUTqvUUMM1JAEy8jNNFaxsXffmS_-bsWtSAxnca1KqcIhc_-vl1cSAEQSbHxx1tT43k19KMfUGZZXZ35VR8lm00]--></g></svg>