<?xml version="1.0" encoding="us-ascii" standalone="no"?><svg xmlns="http://www.w3.org/2000/svg" xmlns:xlink="http://www.w3.org/1999/xlink" contentStyleType="text/css" height="811px" preserveAspectRatio="none" style="width:290px;height:811px;background:#FFFFFF;" version="1.1" viewBox="0 0 290 811" width="290px" zoomAndPan="magnify"><defs/><g><!--class ib.grapher.Graph--><a href="Graph.html" target="_top" title="Graph.html" xlink:actuate="onRequest" xlink:href="Graph.html" xlink:show="new" xlink:title="Graph.html" xlink:type="simple"><g id="elem_ib.grapher.Graph"><rect codeLine="5" fill="#F1F1F1" height="680.8203" id="ib.grapher.Graph" rx="2.5" ry="2.5" style="stroke:#181818;stroke-width:0.5;" width="276" x="7" y="105.27"/><ellipse cx="115.75" cy="124.4028" fill="#ADD1B2" rx="11" ry="11" style="stroke:#181818;stroke-width:1.0;"/><path d="M118.2231,130.5459 Q117.6421,130.8447 117.0029,130.9941 Q116.3638,131.1435 115.6582,131.1435 Q113.1514,131.1435 111.8315,129.4917 Q110.5117,127.8398 110.5117,124.7187 Q110.5117,121.5893 111.8315,119.9375 Q113.1514,118.2856 115.6582,118.2856 Q116.3638,118.2856 117.0112,118.435 Q117.6587,118.5845 118.2231,118.8833 L118.2231,121.6059 Q117.5923,121.0249 116.9988,120.7551 Q116.4053,120.4853 115.7744,120.4853 Q114.4297,120.4853 113.7449,121.552 Q113.0601,122.6186 113.0601,124.7187 Q113.0601,126.8105 113.7449,127.8772 Q114.4297,128.9438 115.7744,128.9438 Q116.4053,128.9438 116.9988,128.6741 Q117.5923,128.4043 118.2231,127.8232 Z " fill="#000000"/><text fill="#000000" font-family="sans-serif" font-size="14" lengthAdjust="spacing" textLength="42" x="140.25" y="123.8052">Graph</text><text fill="#000000" font-family="sans-serif" font-size="10" lengthAdjust="spacing" textLength="50" x="136.25" y="136.4262">ib.grapher</text><line style="stroke:#181818;stroke-width:0.5;" x1="8" x2="282" y1="143.5356" y2="143.5356"/><ellipse cx="18" cy="157.2798" fill="none" rx="3" ry="3" style="stroke:#038048;stroke-width:1.0;"/><text fill="#000000" font-family="sans-serif" font-size="14" lengthAdjust="spacing" text-decoration="underline" textLength="147" x="27" y="161.0708">SCATTERPLOT: String</text><ellipse cx="18" cy="173.768" fill="none" rx="3" ry="3" style="stroke:#038048;stroke-width:1.0;"/><text fill="#000000" font-family="sans-serif" font-size="14" lengthAdjust="spacing" text-decoration="underline" textLength="78" x="27" y="177.5591">LINE: String</text><ellipse cx="18" cy="190.2563" fill="none" rx="3" ry="3" style="stroke:#038048;stroke-width:1.0;"/><text fill="#000000" font-family="sans-serif" font-size="14" lengthAdjust="spacing" text-decoration="underline" textLength="76" x="27" y="194.0473">BAR: String</text><rect fill="none" height="6" style="stroke:#C82930;stroke-width:1.0;" width="6" x="15" y="203.7446"/><text fill="#000000" font-family="sans-serif" font-size="14" lengthAdjust="spacing" textLength="120" x="27" y="210.5356">graphTitle: String</text><rect fill="none" height="6" style="stroke:#C82930;stroke-width:1.0;" width="6" x="15" y="220.2329"/><text fill="#000000" font-family="sans-serif" font-size="14" lengthAdjust="spacing" textLength="116" x="27" y="227.0239">axisTitleX: String</text><rect fill="none" height="6" style="stroke:#C82930;stroke-width:1.0;" width="6" x="15" y="236.7212"/><text fill="#000000" font-family="sans-serif" font-size="14" lengthAdjust="spacing" textLength="116" x="27" y="243.5122">axisTitleY: String</text><rect fill="none" height="6" style="stroke:#C82930;stroke-width:1.0;" width="6" x="15" y="253.2095"/><text fill="#000000" font-family="sans-serif" font-size="14" lengthAdjust="spacing" textLength="123" x="27" y="260.0005">graphType: String</text><rect fill="none" height="6" style="stroke:#C82930;stroke-width:1.0;" width="6" x="15" y="269.6977"/><text fill="#000000" font-family="sans-serif" font-size="14" lengthAdjust="spacing" textLength="87" x="27" y="276.4888">stepX: Series</text><rect fill="none" height="6" style="stroke:#C82930;stroke-width:1.0;" width="6" x="15" y="286.186"/><text fill="#000000" font-family="sans-serif" font-size="14" lengthAdjust="spacing" textLength="87" x="27" y="292.977">stepY: Series</text><rect fill="none" height="6" style="stroke:#C82930;stroke-width:1.0;" width="6" x="15" y="302.6743"/><text fill="#000000" font-family="sans-serif" font-size="14" lengthAdjust="spacing" textLength="129" x="27" y="309.4653">panelGraph: JPanel</text><rect fill="none" height="6" style="stroke:#C82930;stroke-width:1.0;" width="6" x="15" y="319.1626"/><text fill="#000000" font-family="sans-serif" font-size="14" lengthAdjust="spacing" textLength="180" x="27" y="325.9536">drawingPanel: GraphPanel</text><rect fill="none" height="6" style="stroke:#C82930;stroke-width:1.0;" width="6" x="15" y="335.6509"/><text fill="#000000" font-family="sans-serif" font-size="14" lengthAdjust="spacing" textLength="125" x="27" y="342.4419">panelMenu: JPanel</text><rect fill="none" height="6" style="stroke:#C82930;stroke-width:1.0;" width="6" x="15" y="352.1391"/><text fill="#000000" font-family="sans-serif" font-size="14" lengthAdjust="spacing" textLength="114" x="27" y="358.9302">labelType: JLabel</text><rect fill="none" height="6" style="stroke:#C82930;stroke-width:1.0;" width="6" x="15" y="368.6274"/><text fill="#000000" font-family="sans-serif" font-size="14" lengthAdjust="spacing" textLength="238" x="27" y="375.4184">selectorType: JComboBox&lt;String&gt;</text><rect fill="none" height="6" style="stroke:#C82930;stroke-width:1.0;" width="6" x="15" y="385.1157"/><text fill="#000000" font-family="sans-serif" font-size="14" lengthAdjust="spacing" textLength="144" x="27" y="391.9067">labelGridlineX: JLabel</text><rect fill="none" height="6" style="stroke:#C82930;stroke-width:1.0;" width="6" x="15" y="401.604"/><text fill="#000000" font-family="sans-serif" font-size="14" lengthAdjust="spacing" textLength="221" x="27" y="408.395">selectorGridlineX: SeriesSelector</text><rect fill="none" height="6" style="stroke:#C82930;stroke-width:1.0;" width="6" x="15" y="418.0923"/><text fill="#000000" font-family="sans-serif" font-size="14" lengthAdjust="spacing" textLength="144" x="27" y="424.8833">labelGridlineY: JLabel</text><rect fill="none" height="6" style="stroke:#C82930;stroke-width:1.0;" width="6" x="15" y="434.5805"/><text fill="#000000" font-family="sans-serif" font-size="14" lengthAdjust="spacing" textLength="221" x="27" y="441.3716">selectorGridlineY: SeriesSelector</text><rect fill="none" height="6" style="stroke:#C82930;stroke-width:1.0;" width="6" x="15" y="451.0688"/><text fill="#000000" font-family="sans-serif" font-size="14" lengthAdjust="spacing" textLength="161" x="27" y="457.8598">labelDimensions: JLabel</text><rect fill="none" height="6" style="stroke:#C82930;stroke-width:1.0;" width="6" x="15" y="467.5571"/><text fill="#000000" font-family="sans-serif" font-size="14" lengthAdjust="spacing" textLength="149" x="27" y="474.3481">buttonExport: JButton</text><rect fill="none" height="6" style="stroke:#C82930;stroke-width:1.0;" width="6" x="15" y="484.0454"/><text fill="#000000" font-family="sans-serif" font-size="14" lengthAdjust="spacing" textLength="178" x="27" y="490.8364">fieldGraphTitle: JTextField</text><rect fill="none" height="6" style="stroke:#C82930;stroke-width:1.0;" width="6" x="15" y="500.5337"/><text fill="#000000" font-family="sans-serif" font-size="14" lengthAdjust="spacing" textLength="250" x="27" y="507.3247">fieldGraphHorizontalAxis: JTextField</text><rect fill="none" height="6" style="stroke:#C82930;stroke-width:1.0;" width="6" x="15" y="517.022"/><text fill="#000000" font-family="sans-serif" font-size="14" lengthAdjust="spacing" textLength="229" x="27" y="523.813">fieldGraphVerticalAxis: JTextField</text><line style="stroke:#181818;stroke-width:0.5;" x1="8" x2="282" y1="530.7661" y2="530.7661"/><ellipse cx="18" cy="544.5102" fill="#84BE84" rx="3" ry="3" style="stroke:#038048;stroke-width:1.0;"/><text fill="#000000" font-family="sans-serif" font-size="14" lengthAdjust="spacing" textLength="114" x="27" y="548.3013">doUpdate(): void</text><ellipse cx="18" cy="560.9985" fill="#84BE84" rx="3" ry="3" style="stroke:#038048;stroke-width:1.0;"/><text fill="#000000" font-family="sans-serif" font-size="14" lengthAdjust="spacing" textLength="93" x="27" y="564.7895">export(): void</text><ellipse cx="18" cy="577.4868" fill="#84BE84" rx="3" ry="3" style="stroke:#038048;stroke-width:1.0;"/><text fill="#000000" font-family="sans-serif" font-size="14" lengthAdjust="spacing" textLength="77" x="27" y="581.2778">sync(): void</text><ellipse cx="18" cy="593.9751" fill="#84BE84" rx="3" ry="3" style="stroke:#038048;stroke-width:1.0;"/><text fill="#000000" font-family="sans-serif" font-size="14" lengthAdjust="spacing" textLength="153" x="27" y="597.7661">getGraphTitle(): String</text><ellipse cx="18" cy="610.4634" fill="#84BE84" rx="3" ry="3" style="stroke:#038048;stroke-width:1.0;"/><text fill="#000000" font-family="sans-serif" font-size="14" lengthAdjust="spacing" textLength="180" x="27" y="614.2544">setGraphTitle(String): void</text><ellipse cx="18" cy="626.9516" fill="#84BE84" rx="3" ry="3" style="stroke:#038048;stroke-width:1.0;"/><text fill="#000000" font-family="sans-serif" font-size="14" lengthAdjust="spacing" textLength="150" x="27" y="630.7427">getAxisTitleX(): String</text><ellipse cx="18" cy="643.4399" fill="#84BE84" rx="3" ry="3" style="stroke:#038048;stroke-width:1.0;"/><text fill="#000000" font-family="sans-serif" font-size="14" lengthAdjust="spacing" textLength="177" x="27" y="647.2309">setAxisTitleX(String): void</text><ellipse cx="18" cy="659.9282" fill="#84BE84" rx="3" ry="3" style="stroke:#038048;stroke-width:1.0;"/><text fill="#000000" font-family="sans-serif" font-size="14" lengthAdjust="spacing" textLength="150" x="27" y="663.7192">getAxisTitleY(): String</text><ellipse cx="18" cy="676.4165" fill="#84BE84" rx="3" ry="3" style="stroke:#038048;stroke-width:1.0;"/><text fill="#000000" font-family="sans-serif" font-size="14" lengthAdjust="spacing" textLength="177" x="27" y="680.2075">setAxisTitleY(String): void</text><ellipse cx="18" cy="692.9048" fill="#84BE84" rx="3" ry="3" style="stroke:#038048;stroke-width:1.0;"/><text fill="#000000" font-family="sans-serif" font-size="14" lengthAdjust="spacing" textLength="156" x="27" y="696.6958">getGraphType(): String</text><ellipse cx="18" cy="709.393" fill="#84BE84" rx="3" ry="3" style="stroke:#038048;stroke-width:1.0;"/><text fill="#000000" font-family="sans-serif" font-size="14" lengthAdjust="spacing" textLength="183" x="27" y="713.1841">setGraphType(String): void</text><ellipse cx="18" cy="725.8813" fill="#84BE84" rx="3" ry="3" style="stroke:#038048;stroke-width:1.0;"/><text fill="#000000" font-family="sans-serif" font-size="14" lengthAdjust="spacing" textLength="151" x="27" y="729.6723">getGridlinesX(): Series</text><ellipse cx="18" cy="742.3696" fill="#84BE84" rx="3" ry="3" style="stroke:#038048;stroke-width:1.0;"/><text fill="#000000" font-family="sans-serif" font-size="14" lengthAdjust="spacing" textLength="178" x="27" y="746.1606">setGridlinesX(Series): void</text><ellipse cx="18" cy="758.8579" fill="#84BE84" rx="3" ry="3" style="stroke:#038048;stroke-width:1.0;"/><text fill="#000000" font-family="sans-serif" font-size="14" lengthAdjust="spacing" textLength="151" x="27" y="762.6489">getGridlinesY(): Series</text><ellipse cx="18" cy="775.3462" fill="#84BE84" rx="3" ry="3" style="stroke:#038048;stroke-width:1.0;"/><text fill="#000000" font-family="sans-serif" font-size="14" lengthAdjust="spacing" textLength="178" x="27" y="779.1372">setGridlinesY(Series): void</text></g></a><!--class javax.swing.JFrame--><g id="elem_javax.swing.JFrame"><rect codeLine="46" fill="#F1F1F1" height="38.2656" id="javax.swing.JFrame" rx="2.5" ry="2.5" style="stroke:#181818;stroke-width:0.5;" width="89" x="100.5" y="7"/><ellipse cx="115.5" cy="26.1328" fill="#ADD1B2" rx="11" ry="11" style="stroke:#181818;stroke-width:1.0;"/><path d="M117.9731,32.2759 Q117.3921,32.5747 116.7529,32.7241 Q116.1138,32.8735 115.4082,32.8735 Q112.9014,32.8735 111.5815,31.2217 Q110.2617,29.5698 110.2617,26.4487 Q110.2617,23.3193 111.5815,21.6675 Q112.9014,20.0156 115.4082,20.0156 Q116.1138,20.0156 116.7612,20.165 Q117.4087,20.3145 117.9731,20.6133 L117.9731,23.3359 Q117.3423,22.7549 116.7488,22.4851 Q116.1553,22.2153 115.5244,22.2153 Q114.1797,22.2153 113.4949,23.282 Q112.8101,24.3486 112.8101,26.4487 Q112.8101,28.5405 113.4949,29.6072 Q114.1797,30.6738 115.5244,30.6738 Q116.1553,30.6738 116.7488,30.4041 Q117.3423,30.1343 117.9731,29.5532 Z " fill="#000000"/><text fill="#000000" font-family="sans-serif" font-size="14" lengthAdjust="spacing" textLength="47" x="134.5" y="25.5352">JFrame</text><text fill="#000000" font-family="sans-serif" font-size="10" lengthAdjust="spacing" textLength="57" x="129.5" y="38.1563">javax.swing</text></g><!--reverse link javax.swing.JFrame to ib.grapher.Graph--><g id="link_javax.swing.JFrame_ib.grapher.Graph"><path codeLine="48" d="M145,63.62 C145,77.43 145,80.17 145,105.08 " fill="none" id="javax.swing.JFrame-backto-ib.grapher.Graph" style="stroke:#181818;stroke-width:1.0;"/><polygon fill="none" points="145,45.62,139,63.62,151,63.62,145,45.62" style="stroke:#181818;stroke-width:1.0;"/></g><text fill="#888888" font-family="sans-serif" font-size="10" lengthAdjust="spacing" textLength="176" x="50" y="801.7583">UMLDoclet 2.1.2, PlantUML 1.2024.3</text><!--SRC=[ZPLVRzem5CNVzockAargnOZMQayHGeAMiY6weP9EYxe-cEGMF3bsPBiijEjtd_-m4aX8bfVaddFomuxkDG002ZLmag7AIO9pp8aaMaZWWkCxOyEAfWYOvNe3ZnHPgWxL3FLA6Ddf2IDAmKbFqMSCpp_rnvBagvzyMt_iqqMmj1BA4o0ATcNWad1_x-x1IcViuG5U7DHUBqeJJPDNwCml1r4qkfrDlqKXpBMaV5cJcdxvEcgmXuFRYjjrIucePbZrI46LituqUF4nvYQlGIgDkQMXfAZsvRWgvuGZSnydXCdC5ZilbUItGJir11SwIBYtRv0_LLzcP87Cht0ojS-bfI33n7J3rhqKsK8CHT7pE-aVCCQIfeno-uMEWKeHlx_vrZY2YjjHSGlgYcR85HLSLLcB9wq57nMvaDguGrVkRDVlur9JJ28izBLLwqAVXQJFWcl21gOXsjBVKPfMRCXsKd6NfqJZwLa8Qq5B3heLLtMruKbLNQBURSBQ1utOKNi1xzPH1cypS8HI2lm79MwZn0sKyR-vQjoGzPiOleMKty_-m7d8My2xZPIuZHBNK5xhpyt9jJHdSkdW_4NMf0YK7NDtSfRgm8SzgAf3xq-tMpbf_QyYroZXKGXxkxkPNec4cV-3Y-0ykFW0CqQuDYgyNwEq8tHwzXS0]--></g></svg>