<?xml version="1.0" encoding="us-ascii" standalone="no"?><svg xmlns="http://www.w3.org/2000/svg" xmlns:xlink="http://www.w3.org/1999/xlink" contentStyleType="text/css" height="335px" preserveAspectRatio="none" style="width:350px;height:335px;background:#FFFFFF;" version="1.1" viewBox="0 0 350 335" width="350px" zoomAndPan="magnify"><defs/><g><!--class ib.grapher.GraphPoint--><a href="GraphPoint.html" target="_top" title="GraphPoint.html" xlink:actuate="onRequest" xlink:href="GraphPoint.html" xlink:show="new" xlink:title="GraphPoint.html" xlink:type="simple"><g id="elem_ib.grapher.GraphPoint"><rect codeLine="5" fill="#F1F1F1" height="301.5898" id="ib.grapher.GraphPoint" rx="2.5" ry="2.5" style="stroke:#181818;stroke-width:0.5;" width="329" x="7" y="7"/><ellipse cx="128.75" cy="26.1328" fill="#ADD1B2" rx="11" ry="11" style="stroke:#181818;stroke-width:1.0;"/><path d="M131.2231,32.2759 Q130.6421,32.5747 130.0029,32.7241 Q129.3638,32.8735 128.6582,32.8735 Q126.1514,32.8735 124.8315,31.2217 Q123.5117,29.5698 123.5117,26.4487 Q123.5117,23.3193 124.8315,21.6675 Q126.1514,20.0156 128.6582,20.0156 Q129.3638,20.0156 130.0112,20.165 Q130.6587,20.3145 131.2231,20.6133 L131.2231,23.3359 Q130.5923,22.7549 129.9988,22.4851 Q129.4053,22.2153 128.7744,22.2153 Q127.4297,22.2153 126.7449,23.282 Q126.0601,24.3486 126.0601,26.4487 Q126.0601,28.5405 126.7449,29.6072 Q127.4297,30.6738 128.7744,30.6738 Q129.4053,30.6738 129.9988,30.4041 Q130.5923,30.1343 131.2231,29.5532 Z " fill="#000000"/><text fill="#000000" font-family="sans-serif" font-size="14" lengthAdjust="spacing" textLength="77" x="149.25" y="25.5352">GraphPoint</text><text fill="#000000" font-family="sans-serif" font-size="10" lengthAdjust="spacing" textLength="50" x="162.75" y="38.1563">ib.grapher</text><line style="stroke:#181818;stroke-width:0.5;" x1="8" x2="335" y1="45.2656" y2="45.2656"/><rect fill="none" height="6" style="stroke:#C82930;stroke-width:1.0;" width="6" x="15" y="56.0098"/><text fill="#000000" font-family="sans-serif" font-size="14" lengthAdjust="spacing" textLength="65" x="27" y="62.8008">x: double</text><rect fill="none" height="6" style="stroke:#C82930;stroke-width:1.0;" width="6" x="15" y="72.498"/><text fill="#000000" font-family="sans-serif" font-size="14" lengthAdjust="spacing" textLength="63" x="27" y="79.2891">y: double</text><rect fill="none" height="6" style="stroke:#C82930;stroke-width:1.0;" width="6" x="15" y="88.9863"/><text fill="#000000" font-family="sans-serif" font-size="14" lengthAdjust="spacing" textLength="73" x="27" y="95.7773">ex: double</text><rect fill="none" height="6" style="stroke:#C82930;stroke-width:1.0;" width="6" x="15" y="105.4746"/><text fill="#000000" font-family="sans-serif" font-size="14" lengthAdjust="spacing" textLength="71" x="27" y="112.2656">ey: double</text><line style="stroke:#181818;stroke-width:0.5;" x1="8" x2="335" y1="119.2188" y2="119.2188"/><ellipse cx="18" cy="132.9629" fill="#84BE84" rx="3" ry="3" style="stroke:#038048;stroke-width:1.0;"/><text fill="#000000" font-family="sans-serif" font-size="14" lengthAdjust="spacing" textLength="303" x="27" y="136.7539">GraphPoint(double, double, double, double)</text><ellipse cx="18" cy="149.4512" fill="#84BE84" rx="3" ry="3" style="stroke:#038048;stroke-width:1.0;"/><text fill="#000000" font-family="sans-serif" font-size="14" lengthAdjust="spacing" textLength="152" x="27" y="153.2422">drawErrorX(): boolean</text><ellipse cx="18" cy="165.9395" fill="#84BE84" rx="3" ry="3" style="stroke:#038048;stroke-width:1.0;"/><text fill="#000000" font-family="sans-serif" font-size="14" lengthAdjust="spacing" textLength="152" x="27" y="169.7305">drawErrorY(): boolean</text><ellipse cx="18" cy="182.4277" fill="#84BE84" rx="3" ry="3" style="stroke:#038048;stroke-width:1.0;"/><text fill="#000000" font-family="sans-serif" font-size="14" lengthAdjust="spacing" textLength="97" x="27" y="186.2188">getX(): double</text><ellipse cx="18" cy="198.916" fill="#84BE84" rx="3" ry="3" style="stroke:#038048;stroke-width:1.0;"/><text fill="#000000" font-family="sans-serif" font-size="14" lengthAdjust="spacing" textLength="124" x="27" y="202.707">setX(double): void</text><ellipse cx="18" cy="215.4043" fill="#84BE84" rx="3" ry="3" style="stroke:#038048;stroke-width:1.0;"/><text fill="#000000" font-family="sans-serif" font-size="14" lengthAdjust="spacing" textLength="97" x="27" y="219.1953">getY(): double</text><ellipse cx="18" cy="231.8926" fill="#84BE84" rx="3" ry="3" style="stroke:#038048;stroke-width:1.0;"/><text fill="#000000" font-family="sans-serif" font-size="14" lengthAdjust="spacing" textLength="124" x="27" y="235.6836">setY(double): void</text><ellipse cx="18" cy="248.3809" fill="#84BE84" rx="3" ry="3" style="stroke:#038048;stroke-width:1.0;"/><text fill="#000000" font-family="sans-serif" font-size="14" lengthAdjust="spacing" textLength="132" x="27" y="252.1719">getErrorX(): double</text><ellipse cx="18" cy="264.8691" fill="#84BE84" rx="3" ry="3" style="stroke:#038048;stroke-width:1.0;"/><text fill="#000000" font-family="sans-serif" font-size="14" lengthAdjust="spacing" textLength="159" x="27" y="268.6602">setErrorX(double): void</text><ellipse cx="18" cy="281.3574" fill="#84BE84" rx="3" ry="3" style="stroke:#038048;stroke-width:1.0;"/><text fill="#000000" font-family="sans-serif" font-size="14" lengthAdjust="spacing" textLength="132" x="27" y="285.1484">getErrorY(): double</text><ellipse cx="18" cy="297.8457" fill="#84BE84" rx="3" ry="3" style="stroke:#038048;stroke-width:1.0;"/><text fill="#000000" font-family="sans-serif" font-size="14" lengthAdjust="spacing" textLength="159" x="27" y="301.6367">setErrorY(double): void</text></g></a><text fill="#888888" font-family="sans-serif" font-size="10" lengthAdjust="spacing" textLength="176" x="83" y="325.2578">UMLDoclet 2.1.2, PlantUML 1.2024.3</text><!--SRC=[XPB1IiD048RlFiLFGKYm3RPu2jAJnOj2GGH3xM6JJ9k5pKxONQjLV7UJDB3OhdKlmtx_VCmS1W0iEMXHasr4GK_K22CS6sZMTD76g6H9eBfnUsmagT8UqvfSnItkUQ64jHZTMlb9wVHcVcz4KorPQlUg1tWzbtcoxJYP4OI5_oQ-7QkL_oILgzLwZQz-HlSc7obAViiLURG_HHHeezE-ApygEaHZX6lidTA8zuKnR5wYE4NEh4ZeG9m5uosvtZlUn7Pyc9LYnxByvMH_EDaPnoyP48Vm7pixPuTcVn-kWRGZWmrpLvuV7-wuKEszpP9fCXjZgOHsBSNbZeoLhAFu1m00]--></g></svg>