<?xml version="1.0" encoding="us-ascii" standalone="no"?><svg xmlns="http://www.w3.org/2000/svg" xmlns:xlink="http://www.w3.org/1999/xlink" contentStyleType="text/css" height="482px" preserveAspectRatio="none" style="width:322px;height:482px;background:#FFFFFF;" version="1.1" viewBox="0 0 322 482" width="322px" zoomAndPan="magnify"><defs/><g><!--class ib.grapher.GraphPanel--><a href="GraphPanel.html" target="_top" title="GraphPanel.html" xlink:actuate="onRequest" xlink:href="GraphPanel.html" xlink:show="new" xlink:title="GraphPanel.html" xlink:type="simple"><g id="elem_ib.grapher.GraphPanel"><rect codeLine="5" fill="#F1F1F1" height="351.0547" id="ib.grapher.GraphPanel" rx="2.5" ry="2.5" style="stroke:#181818;stroke-width:0.5;" width="306" x="9" y="105.27"/><ellipse cx="118.25" cy="124.4028" fill="#ADD1B2" rx="11" ry="11" style="stroke:#181818;stroke-width:1.0;"/><path d="M120.7231,130.5459 Q120.1421,130.8447 119.5029,130.9941 Q118.8638,131.1435 118.1582,131.1435 Q115.6514,131.1435 114.3315,129.4917 Q113.0117,127.8398 113.0117,124.7187 Q113.0117,121.5893 114.3315,119.9375 Q115.6514,118.2856 118.1582,118.2856 Q118.8638,118.2856 119.5112,118.435 Q120.1587,118.5845 120.7231,118.8833 L120.7231,121.6059 Q120.0923,121.0249 119.4988,120.7551 Q118.9053,120.4853 118.2744,120.4853 Q116.9297,120.4853 116.2449,121.552 Q115.5601,122.6186 115.5601,124.7187 Q115.5601,126.8105 116.2449,127.8772 Q116.9297,128.9438 118.2744,128.9438 Q118.9053,128.9438 119.4988,128.6741 Q120.0923,128.4043 120.7231,127.8232 Z " fill="#000000"/><text fill="#000000" font-family="sans-serif" font-size="14" lengthAdjust="spacing" textLength="79" x="138.75" y="123.8052">GraphPanel</text><text fill="#000000" font-family="sans-serif" font-size="10" lengthAdjust="spacing" textLength="50" x="153.25" y="136.4262">ib.grapher</text><line style="stroke:#181818;stroke-width:0.5;" x1="10" x2="314" y1="143.5356" y2="143.5356"/><ellipse cx="20" cy="157.2798" fill="none" rx="3" ry="3" style="stroke:#038048;stroke-width:1.0;"/><text fill="#000000" font-family="sans-serif" font-size="14" lengthAdjust="spacing" textLength="137" x="29" y="161.0708">parentGraph: Graph</text><rect fill="none" height="6" style="stroke:#C82930;stroke-width:1.0;" width="6" x="17" y="170.768"/><text fill="#000000" font-family="sans-serif" font-size="14" lengthAdjust="spacing" textLength="106" x="29" y="177.5591">xLower: double</text><rect fill="none" height="6" style="stroke:#C82930;stroke-width:1.0;" width="6" x="17" y="187.2563"/><text fill="#000000" font-family="sans-serif" font-size="14" lengthAdjust="spacing" textLength="104" x="29" y="194.0473">yLower: double</text><rect fill="none" height="6" style="stroke:#C82930;stroke-width:1.0;" width="6" x="17" y="203.7446"/><text fill="#000000" font-family="sans-serif" font-size="14" lengthAdjust="spacing" textLength="107" x="29" y="210.5356">xUpper: double</text><rect fill="none" height="6" style="stroke:#C82930;stroke-width:1.0;" width="6" x="17" y="220.2329"/><text fill="#000000" font-family="sans-serif" font-size="14" lengthAdjust="spacing" textLength="105" x="29" y="227.0239">yUpper: double</text><rect fill="none" height="6" style="stroke:#C82930;stroke-width:1.0;" width="6" x="17" y="236.7212"/><text fill="#000000" font-family="sans-serif" font-size="14" lengthAdjust="spacing" textLength="108" x="29" y="243.5122">yLabelWidth: int</text><line style="stroke:#181818;stroke-width:0.5;" x1="10" x2="314" y1="250.4653" y2="250.4653"/><ellipse cx="20" cy="264.2095" fill="#84BE84" rx="3" ry="3" style="stroke:#038048;stroke-width:1.0;"/><text fill="#000000" font-family="sans-serif" font-size="14" lengthAdjust="spacing" textLength="131" x="29" y="268.0005">GraphPanel(Graph)</text><polygon fill="#FFFF44" points="20,275.6977,24,279.6977,20,283.6977,16,279.6977" style="stroke:#B38D22;stroke-width:1.0;"/><text fill="#000000" font-family="sans-serif" font-size="14" lengthAdjust="spacing" textLength="223" x="29" y="284.4888">paintComponent(Graphics): void</text><rect fill="#F24D5C" height="6" style="stroke:#C82930;stroke-width:1.0;" width="6" x="17" y="294.186"/><text fill="#000000" font-family="sans-serif" font-size="14" lengthAdjust="spacing" textLength="233" x="29" y="300.977">getYLabelWidth(FontMetrics): void</text><rect fill="#F24D5C" height="6" style="stroke:#C82930;stroke-width:1.0;" width="6" x="17" y="310.6743"/><text fill="#000000" font-family="sans-serif" font-size="14" lengthAdjust="spacing" textLength="168" x="29" y="317.4653">getRelativeX(double): int</text><rect fill="#F24D5C" height="6" style="stroke:#C82930;stroke-width:1.0;" width="6" x="17" y="327.1626"/><text fill="#000000" font-family="sans-serif" font-size="14" lengthAdjust="spacing" textLength="168" x="29" y="333.9536">getRelativeY(double): int</text><rect fill="#F24D5C" height="6" style="stroke:#C82930;stroke-width:1.0;" width="6" x="17" y="343.6509"/><text fill="#000000" font-family="sans-serif" font-size="14" lengthAdjust="spacing" textLength="280" x="29" y="350.4419">drawPoint(GraphPoint, Graphics2D): void</text><rect fill="#F24D5C" height="6" style="stroke:#C82930;stroke-width:1.0;" width="6" x="17" y="360.1391"/><text fill="#000000" font-family="sans-serif" font-size="14" lengthAdjust="spacing" textLength="276" x="29" y="366.9302">calculateTrendline(double, double): int[]</text><ellipse cx="20" cy="379.6274" fill="#84BE84" rx="3" ry="3" style="stroke:#038048;stroke-width:1.0;"/><text fill="#000000" font-family="sans-serif" font-size="14" lengthAdjust="spacing" textLength="157" x="29" y="383.4184">getLeftBound(): double</text><ellipse cx="20" cy="396.1157" fill="#84BE84" rx="3" ry="3" style="stroke:#038048;stroke-width:1.0;"/><text fill="#000000" font-family="sans-serif" font-size="14" lengthAdjust="spacing" textLength="173" x="29" y="399.9067">getLowerBound(): double</text><ellipse cx="20" cy="412.604" fill="#84BE84" rx="3" ry="3" style="stroke:#038048;stroke-width:1.0;"/><text fill="#000000" font-family="sans-serif" font-size="14" lengthAdjust="spacing" textLength="168" x="29" y="416.395">getRightBound(): double</text><ellipse cx="20" cy="429.0923" fill="#84BE84" rx="3" ry="3" style="stroke:#038048;stroke-width:1.0;"/><text fill="#000000" font-family="sans-serif" font-size="14" lengthAdjust="spacing" textLength="174" x="29" y="432.8833">getUpperBound(): double</text><ellipse cx="20" cy="445.5805" fill="#84BE84" rx="3" ry="3" style="stroke:#038048;stroke-width:1.0;"/><text fill="#000000" font-family="sans-serif" font-size="14" lengthAdjust="spacing" textLength="214" x="29" y="449.3716">getVerticalLabelWidth(): double</text></g></a><!--class javax.swing.JPanel--><g id="elem_javax.swing.JPanel"><rect codeLine="26" fill="#F1F1F1" height="38.2656" id="javax.swing.JPanel" rx="2.5" ry="2.5" style="stroke:#181818;stroke-width:0.5;" width="89" x="117.5" y="7"/><ellipse cx="132.5" cy="26.1328" fill="#ADD1B2" rx="11" ry="11" style="stroke:#181818;stroke-width:1.0;"/><path d="M134.9731,32.2759 Q134.3921,32.5747 133.7529,32.7241 Q133.1138,32.8735 132.4082,32.8735 Q129.9014,32.8735 128.5815,31.2217 Q127.2617,29.5698 127.2617,26.4487 Q127.2617,23.3193 128.5815,21.6675 Q129.9014,20.0156 132.4082,20.0156 Q133.1138,20.0156 133.7612,20.165 Q134.4087,20.3145 134.9731,20.6133 L134.9731,23.3359 Q134.3423,22.7549 133.7488,22.4851 Q133.1553,22.2153 132.5244,22.2153 Q131.1797,22.2153 130.4949,23.282 Q129.8101,24.3486 129.8101,26.4487 Q129.8101,28.5405 130.4949,29.6072 Q131.1797,30.6738 132.5244,30.6738 Q133.1553,30.6738 133.7488,30.4041 Q134.3423,30.1343 134.9731,29.5532 Z " fill="#000000"/><text fill="#000000" font-family="sans-serif" font-size="14" lengthAdjust="spacing" textLength="41" x="154.5" y="25.5352">JPanel</text><text fill="#000000" font-family="sans-serif" font-size="10" lengthAdjust="spacing" textLength="57" x="146.5" y="38.1563">javax.swing</text></g><!--reverse link javax.swing.JPanel to ib.grapher.GraphPanel--><g id="link_javax.swing.JPanel_ib.grapher.GraphPanel"><path codeLine="28" d="M162,63.71 C162,77.9 162,81.03 162,104.88 " fill="none" id="javax.swing.JPanel-backto-ib.grapher.GraphPanel" style="stroke:#181818;stroke-width:1.0;"/><polygon fill="none" points="162,45.71,156,63.71,168,63.71,162,45.71" style="stroke:#181818;stroke-width:1.0;"/></g><text fill="#888888" font-family="sans-serif" font-size="10" lengthAdjust="spacing" textLength="176" x="66" y="471.9927">UMLDoclet 2.1.2, PlantUML 1.2024.3</text><!--SRC=[VLFBRi8m4BptArQjAYKgH0Nr524EBMgbAaY8bhQ8SZ39ahXoxCWshpx-lSO1pDiNUsT7iwFTDG20GWsSvAWA4kCB5aGIBIHmmV72f26Z2GBcXLx0c29Br3wQeyw4WIqUCw8KN3OK_SQmTjTyagJ8EeGZ- -GhyBP9Hq6wn55U0b7Wmi3HOJ1mGP3fd0s7y6DhBC-DyObSMqe8zjhaglD8p526a8Z9YA735oVmUQyeZl9FuH4P8NkdYJQrATVEbRFisQU_ILqLn30VH5wOnd9Tfcci_12cWYPEF4NTT_hUe-2wZLgUe7QH4Ksd-E6L9lrTGzkK_WbA8ici8-ZQatrMOEsltZee6nCMJumclfeH98noN2bNOBl2OEZwOcn4EDRtOi8Jpp_egCqlPtEEqALfTbR1JkiSuGsbfiRzLdjtYN_7b_XvVu6_o9JC0pMZFBKRl1K79RaKEiIXyLkj7j_uihJP3PGm5c9vzTfHIyJC_D1wK0lg5UWmmhL1uNgAKb71FVyV]--></g></svg>