<?xml version="1.0" encoding="us-ascii" standalone="no"?><svg xmlns="http://www.w3.org/2000/svg" xmlns:xlink="http://www.w3.org/1999/xlink" contentStyleType="text/css" height="597px" preserveAspectRatio="none" style="width:376px;height:597px;background:#FFFFFF;" version="1.1" viewBox="0 0 376 597" width="376px" zoomAndPan="magnify"><defs/><g><!--class ib.grapher.PlottableDataMenu--><a href="PlottableDataMenu.html" target="_top" title="PlottableDataMenu.html" xlink:actuate="onRequest" xlink:href="PlottableDataMenu.html" xlink:show="new" xlink:title="PlottableDataMenu.html" xlink:type="simple"><g id="elem_ib.grapher.PlottableDataMenu"><rect codeLine="5" fill="#F1F1F1" height="466.4727" id="ib.grapher.PlottableDataMenu" rx="2.5" ry="2.5" style="stroke:#181818;stroke-width:0.5;" width="362" x="7" y="105.27"/><ellipse cx="119.25" cy="124.4028" fill="#ADD1B2" rx="11" ry="11" style="stroke:#181818;stroke-width:1.0;"/><path d="M121.7231,130.5459 Q121.1421,130.8447 120.5029,130.9941 Q119.8638,131.1435 119.1582,131.1435 Q116.6514,131.1435 115.3315,129.4917 Q114.0117,127.8398 114.0117,124.7187 Q114.0117,121.5893 115.3315,119.9375 Q116.6514,118.2856 119.1582,118.2856 Q119.8638,118.2856 120.5112,118.435 Q121.1587,118.5845 121.7231,118.8833 L121.7231,121.6059 Q121.0923,121.0249 120.4988,120.7551 Q119.9053,120.4853 119.2744,120.4853 Q117.9297,120.4853 117.2449,121.552 Q116.5601,122.6186 116.5601,124.7187 Q116.5601,126.8105 117.2449,127.8772 Q117.9297,128.9438 119.2744,128.9438 Q119.9053,128.9438 120.4988,128.6741 Q121.0923,128.4043 121.7231,127.8232 Z " fill="#000000"/><text fill="#000000" font-family="sans-serif" font-size="14" lengthAdjust="spacing" textLength="129" x="139.75" y="123.8052">PlottableDataMenu</text><text fill="#000000" font-family="sans-serif" font-size="10" lengthAdjust="spacing" textLength="50" x="179.25" y="136.4262">ib.grapher</text><line style="stroke:#181818;stroke-width:0.5;" x1="8" x2="368" y1="143.5356" y2="143.5356"/><rect fill="none" height="6" style="stroke:#C82930;stroke-width:1.0;" width="6" x="15" y="154.2798"/><text fill="#000000" font-family="sans-serif" font-size="14" lengthAdjust="spacing" textLength="191" x="27" y="161.0708">plottableData: PlottableData</text><rect fill="none" height="6" style="stroke:#C82930;stroke-width:1.0;" width="6" x="15" y="170.768"/><text fill="#000000" font-family="sans-serif" font-size="14" lengthAdjust="spacing" textLength="140" x="27" y="177.5591">table: PlottableTable</text><rect fill="none" height="6" style="stroke:#C82930;stroke-width:1.0;" width="6" x="15" y="187.2563"/><text fill="#000000" font-family="sans-serif" font-size="14" lengthAdjust="spacing" textLength="120" x="27" y="194.0473">panelMain: JPanel</text><rect fill="none" height="6" style="stroke:#C82930;stroke-width:1.0;" width="6" x="15" y="203.7446"/><text fill="#000000" font-family="sans-serif" font-size="14" lengthAdjust="spacing" textLength="145" x="27" y="210.5356">fieldName: JTextField</text><rect fill="none" height="6" style="stroke:#C82930;stroke-width:1.0;" width="6" x="15" y="220.2329"/><text fill="#000000" font-family="sans-serif" font-size="14" lengthAdjust="spacing" textLength="197" x="27" y="227.0239">selectorXAxis: SeriesSelector</text><rect fill="none" height="6" style="stroke:#C82930;stroke-width:1.0;" width="6" x="15" y="236.7212"/><text fill="#000000" font-family="sans-serif" font-size="14" lengthAdjust="spacing" textLength="197" x="27" y="243.5122">selectorYAxis: SeriesSelector</text><rect fill="none" height="6" style="stroke:#C82930;stroke-width:1.0;" width="6" x="15" y="253.2095"/><text fill="#000000" font-family="sans-serif" font-size="14" lengthAdjust="spacing" textLength="231" x="27" y="260.0005">selectorXErrorBars: SeriesSelector</text><rect fill="none" height="6" style="stroke:#C82930;stroke-width:1.0;" width="6" x="15" y="269.6977"/><text fill="#000000" font-family="sans-serif" font-size="14" lengthAdjust="spacing" textLength="231" x="27" y="276.4888">selectorYErrorBars: SeriesSelector</text><rect fill="none" height="6" style="stroke:#C82930;stroke-width:1.0;" width="6" x="15" y="286.186"/><text fill="#000000" font-family="sans-serif" font-size="14" lengthAdjust="spacing" textLength="169" x="27" y="292.977">toggleVisible: JCheckBox</text><rect fill="none" height="6" style="stroke:#C82930;stroke-width:1.0;" width="6" x="15" y="302.6743"/><text fill="#000000" font-family="sans-serif" font-size="14" lengthAdjust="spacing" textLength="190" x="27" y="309.4653">toggleTrendline: JCheckBox</text><rect fill="none" height="6" style="stroke:#C82930;stroke-width:1.0;" width="6" x="15" y="319.1626"/><text fill="#000000" font-family="sans-serif" font-size="14" lengthAdjust="spacing" textLength="153" x="27" y="325.9536">panelTrendline: JPanel</text><rect fill="none" height="6" style="stroke:#C82930;stroke-width:1.0;" width="6" x="15" y="335.6509"/><text fill="#000000" font-family="sans-serif" font-size="14" lengthAdjust="spacing" textLength="147" x="27" y="342.4419">labelTrendline: JLabel</text><rect fill="none" height="6" style="stroke:#C82930;stroke-width:1.0;" width="6" x="15" y="352.1391"/><text fill="#000000" font-family="sans-serif" font-size="14" lengthAdjust="spacing" textLength="194" x="27" y="358.9302">toggleXAgainstY: JCheckBox</text><rect fill="none" height="6" style="stroke:#C82930;stroke-width:1.0;" width="6" x="15" y="368.6274"/><text fill="#000000" font-family="sans-serif" font-size="14" lengthAdjust="spacing" textLength="157" x="27" y="375.4184">buttonRemove: JButton</text><rect fill="none" height="6" style="stroke:#C82930;stroke-width:1.0;" width="6" x="15" y="385.1157"/><text fill="#000000" font-family="sans-serif" font-size="14" lengthAdjust="spacing" textLength="202" x="27" y="391.9067">buttonChooseColour: JButton</text><line style="stroke:#181818;stroke-width:0.5;" x1="8" x2="368" y1="398.8598" y2="398.8598"/><ellipse cx="18" cy="412.604" fill="#84BE84" rx="3" ry="3" style="stroke:#038048;stroke-width:1.0;"/><text fill="#000000" font-family="sans-serif" font-size="14" lengthAdjust="spacing" textLength="336" x="27" y="416.395">PlottableDataMenu(PlottableData, PlottableTable)</text><ellipse cx="18" cy="429.0923" fill="#84BE84" rx="3" ry="3" style="stroke:#038048;stroke-width:1.0;"/><text fill="#000000" font-family="sans-serif" font-size="14" lengthAdjust="spacing" textLength="197" x="27" y="432.8833">updateTrendlineLabel(): void</text><ellipse cx="18" cy="445.5805" fill="#84BE84" rx="3" ry="3" style="stroke:#038048;stroke-width:1.0;"/><text fill="#000000" font-family="sans-serif" font-size="14" lengthAdjust="spacing" textLength="77" x="27" y="449.3716">sync(): void</text><ellipse cx="18" cy="462.0688" fill="#84BE84" rx="3" ry="3" style="stroke:#038048;stroke-width:1.0;"/><text fill="#000000" font-family="sans-serif" font-size="14" lengthAdjust="spacing" textLength="162" x="27" y="465.8598">getData(): PlottableData</text><ellipse cx="18" cy="478.5571" fill="#84BE84" rx="3" ry="3" style="stroke:#038048;stroke-width:1.0;"/><text fill="#000000" font-family="sans-serif" font-size="14" lengthAdjust="spacing" textLength="176" x="27" y="482.3481">getTable(): PlottableTable</text><ellipse cx="18" cy="495.0454" fill="#84BE84" rx="3" ry="3" style="stroke:#038048;stroke-width:1.0;"/><text fill="#000000" font-family="sans-serif" font-size="14" lengthAdjust="spacing" textLength="180" x="27" y="498.8364">getNameField(): JTextField</text><ellipse cx="18" cy="511.5337" fill="#84BE84" rx="3" ry="3" style="stroke:#038048;stroke-width:1.0;"/><text fill="#000000" font-family="sans-serif" font-size="14" lengthAdjust="spacing" textLength="200" x="27" y="515.3247">getSelectorX(): SeriesSelector</text><ellipse cx="18" cy="528.022" fill="#84BE84" rx="3" ry="3" style="stroke:#038048;stroke-width:1.0;"/><text fill="#000000" font-family="sans-serif" font-size="14" lengthAdjust="spacing" textLength="200" x="27" y="531.813">getSelectorY(): SeriesSelector</text><ellipse cx="18" cy="544.5102" fill="#84BE84" rx="3" ry="3" style="stroke:#038048;stroke-width:1.0;"/><text fill="#000000" font-family="sans-serif" font-size="14" lengthAdjust="spacing" textLength="235" x="27" y="548.3013">getSelectorXError(): SeriesSelector</text><ellipse cx="18" cy="560.9985" fill="#84BE84" rx="3" ry="3" style="stroke:#038048;stroke-width:1.0;"/><text fill="#000000" font-family="sans-serif" font-size="14" lengthAdjust="spacing" textLength="235" x="27" y="564.7895">getSelectorYError(): SeriesSelector</text></g></a><!--class javax.swing.JPanel--><g id="elem_javax.swing.JPanel"><rect codeLine="33" fill="#F1F1F1" height="38.2656" id="javax.swing.JPanel" rx="2.5" ry="2.5" style="stroke:#181818;stroke-width:0.5;" width="89" x="143.5" y="7"/><ellipse cx="158.5" cy="26.1328" fill="#ADD1B2" rx="11" ry="11" style="stroke:#181818;stroke-width:1.0;"/><path d="M160.9731,32.2759 Q160.3921,32.5747 159.7529,32.7241 Q159.1138,32.8735 158.4082,32.8735 Q155.9014,32.8735 154.5815,31.2217 Q153.2617,29.5698 153.2617,26.4487 Q153.2617,23.3193 154.5815,21.6675 Q155.9014,20.0156 158.4082,20.0156 Q159.1138,20.0156 159.7612,20.165 Q160.4087,20.3145 160.9731,20.6133 L160.9731,23.3359 Q160.3423,22.7549 159.7488,22.4851 Q159.1553,22.2153 158.5244,22.2153 Q157.1797,22.2153 156.4949,23.282 Q155.8101,24.3486 155.8101,26.4487 Q155.8101,28.5405 156.4949,29.6072 Q157.1797,30.6738 158.5244,30.6738 Q159.1553,30.6738 159.7488,30.4041 Q160.3423,30.1343 160.9731,29.5532 Z " fill="#000000"/><text fill="#000000" font-family="sans-serif" font-size="14" lengthAdjust="spacing" textLength="41" x="180.5" y="25.5352">JPanel</text><text fill="#000000" font-family="sans-serif" font-size="10" lengthAdjust="spacing" textLength="57" x="172.5" y="38.1563">javax.swing</text></g><!--reverse link javax.swing.JPanel to ib.grapher.PlottableDataMenu--><g id="link_javax.swing.JPanel_ib.grapher.PlottableDataMenu"><path codeLine="35" d="M188,63.62 C188,77.65 188,80.65 188,105.09 " fill="none" id="javax.swing.JPanel-backto-ib.grapher.PlottableDataMenu" style="stroke:#181818;stroke-width:1.0;"/><polygon fill="none" points="188,45.62,182,63.62,194,63.62,188,45.62" style="stroke:#181818;stroke-width:1.0;"/></g><text fill="#888888" font-family="sans-serif" font-size="10" lengthAdjust="spacing" textLength="176" x="93" y="587.4106">UMLDoclet 2.1.2, PlantUML 1.2024.3</text><!--SRC=[ZPHRJ-Cm48NV-HKZf9LQGQC5yHGX95hO1qGHejrLAvQ7QJea1iSJsMufb_tl6xj5kOAIXwO-v_Cu6XyD080X2mfJCXb6DA4CDLhMe5ZHNcv38fO4b6Rs5Hu5oQMfgodPX7FPwv54Os3_r8Wt2ezEpcubMuiBIHTeSKngzLVjl9zdOX746hE4z3wWWM8PD7R1_Nr32nARoeS7UFS7ksUGbPaGAbiAoaibT-f-IaLGaHoZK25StRh_XUKRS9CtAxUcjB6_tBgm3KcAykRDpZV2X30XBSXCTc8JctV3PfTQinwYxbAo0sivZYNz4KRuDboD4egUXxof4rDDQYc5QcTybyf8hLKI5rN_sWdrCsRdSTveO-UjPonMrhAwevJNhiBGB-lsA64sD6B9Azs43XgnwLMKmreC-iNELRP4MtJ1Vt-l7yAQHN7d1-PLHKqr9kkgEwCzX8xm1rQGQX8TuyBcK-QubimvvlEAPuxvujRBtBmZjmrUrwBVmV_QXyCsCwM9y8Hht0JcHQZOZuJIEjW5p1Tgwd3wCHXyEqAsNq3AaeP7PlVwFRw-u4Zc0_0uE0gENHPGsLo57slIHh3gzVy3]--></g></svg>