<?xml version="1.0" encoding="us-ascii" standalone="no"?><svg xmlns="http://www.w3.org/2000/svg" xmlns:xlink="http://www.w3.org/1999/xlink" contentStyleType="text/css" height="366px" preserveAspectRatio="none" style="width:358px;height:366px;background:#FFFFFF;" version="1.1" viewBox="0 0 358 366" width="358px" zoomAndPan="magnify"><defs/><g><!--class ib.grapher.PlottableTable--><a href="PlottableTable.html" target="_top" title="PlottableTable.html" xlink:actuate="onRequest" xlink:href="PlottableTable.html" xlink:show="new" xlink:title="PlottableTable.html" xlink:type="simple"><g id="elem_ib.grapher.PlottableTable"><rect codeLine="5" fill="#F1F1F1" height="235.6367" id="ib.grapher.PlottableTable" rx="2.5" ry="2.5" style="stroke:#181818;stroke-width:0.5;" width="344" x="7" y="105.26"/><ellipse cx="125.75" cy="124.3928" fill="#ADD1B2" rx="11" ry="11" style="stroke:#181818;stroke-width:1.0;"/><path d="M128.2231,130.5359 Q127.6421,130.8347 127.0029,130.9841 Q126.3638,131.1335 125.6582,131.1335 Q123.1514,131.1335 121.8315,129.4817 Q120.5117,127.8298 120.5117,124.7087 Q120.5117,121.5793 121.8315,119.9275 Q123.1514,118.2756 125.6582,118.2756 Q126.3638,118.2756 127.0112,118.425 Q127.6587,118.5745 128.2231,118.8733 L128.2231,121.5959 Q127.5923,121.0149 126.9988,120.7451 Q126.4053,120.4753 125.7744,120.4753 Q124.4297,120.4753 123.7449,121.542 Q123.0601,122.6086 123.0601,124.7087 Q123.0601,126.8005 123.7449,127.8672 Q124.4297,128.9338 125.7744,128.9338 Q126.4053,128.9338 126.9988,128.6641 Q127.5923,128.3943 128.2231,127.8132 Z " fill="#000000"/><text fill="#000000" font-family="sans-serif" font-size="14" lengthAdjust="spacing" textLength="98" x="146.25" y="123.7952">PlottableTable</text><text fill="#000000" font-family="sans-serif" font-size="10" lengthAdjust="spacing" textLength="50" x="170.25" y="136.4163">ib.grapher</text><line style="stroke:#181818;stroke-width:0.5;" x1="8" x2="350" y1="143.5256" y2="143.5256"/><rect fill="none" height="6" style="stroke:#C82930;stroke-width:1.0;" width="6" x="15" y="154.2698"/><text fill="#000000" font-family="sans-serif" font-size="14" lengthAdjust="spacing" textLength="202" x="27" y="161.0608">dataSets: List&lt;PlottableData&gt;</text><rect fill="none" height="6" style="stroke:#C82930;stroke-width:1.0;" width="6" x="15" y="170.758"/><text fill="#000000" font-family="sans-serif" font-size="14" lengthAdjust="spacing" textLength="120" x="27" y="177.5491">mainPanel: JPanel</text><rect fill="none" height="6" style="stroke:#C82930;stroke-width:1.0;" width="6" x="15" y="187.2463"/><text fill="#000000" font-family="sans-serif" font-size="14" lengthAdjust="spacing" textLength="72" x="27" y="194.0373">glue: Filler</text><line style="stroke:#181818;stroke-width:0.5;" x1="8" x2="350" y1="200.9905" y2="200.9905"/><ellipse cx="18" cy="214.7346" fill="#84BE84" rx="3" ry="3" style="stroke:#038048;stroke-width:1.0;"/><text fill="#000000" font-family="sans-serif" font-size="14" lengthAdjust="spacing" textLength="114" x="27" y="218.5256">doUpdate(): void</text><ellipse cx="18" cy="231.2229" fill="#84BE84" rx="3" ry="3" style="stroke:#038048;stroke-width:1.0;"/><text fill="#000000" font-family="sans-serif" font-size="14" lengthAdjust="spacing" textLength="80" x="27" y="235.0139">clear(): void</text><ellipse cx="18" cy="247.7112" fill="#84BE84" rx="3" ry="3" style="stroke:#038048;stroke-width:1.0;"/><text fill="#000000" font-family="sans-serif" font-size="14" lengthAdjust="spacing" textLength="255" x="27" y="251.5022">addPlottableData(PlottableData): void</text><ellipse cx="18" cy="264.1995" fill="#84BE84" rx="3" ry="3" style="stroke:#038048;stroke-width:1.0;"/><text fill="#000000" font-family="sans-serif" font-size="14" lengthAdjust="spacing" textLength="318" x="27" y="267.9905">removePlottableData(PlottableDataMenu): void</text><ellipse cx="18" cy="280.6877" fill="#84BE84" rx="3" ry="3" style="stroke:#038048;stroke-width:1.0;"/><text fill="#000000" font-family="sans-serif" font-size="14" lengthAdjust="spacing" textLength="235" x="27" y="284.4788">getDataSets(): List&lt;PlottableData&gt;</text><ellipse cx="18" cy="297.176" fill="#84BE84" rx="3" ry="3" style="stroke:#038048;stroke-width:1.0;"/><text fill="#000000" font-family="sans-serif" font-size="14" lengthAdjust="spacing" textLength="262" x="27" y="300.967">setDataSets(List&lt;PlottableData&gt;): void</text><ellipse cx="18" cy="313.6643" fill="#84BE84" rx="3" ry="3" style="stroke:#038048;stroke-width:1.0;"/><text fill="#000000" font-family="sans-serif" font-size="14" lengthAdjust="spacing" textLength="151" x="27" y="317.4553">getMainPanel(): JPanel</text><ellipse cx="18" cy="330.1526" fill="#84BE84" rx="3" ry="3" style="stroke:#038048;stroke-width:1.0;"/><text fill="#000000" font-family="sans-serif" font-size="14" lengthAdjust="spacing" textLength="105" x="27" y="333.9436">getGlue(): Filler</text></g></a><!--class javax.swing.JFrame--><g id="elem_javax.swing.JFrame"><rect codeLine="19" fill="#F1F1F1" height="38.2656" id="javax.swing.JFrame" rx="2.5" ry="2.5" style="stroke:#181818;stroke-width:0.5;" width="89" x="134.5" y="7"/><ellipse cx="149.5" cy="26.1328" fill="#ADD1B2" rx="11" ry="11" style="stroke:#181818;stroke-width:1.0;"/><path d="M151.9731,32.2759 Q151.3921,32.5747 150.7529,32.7241 Q150.1138,32.8735 149.4082,32.8735 Q146.9014,32.8735 145.5815,31.2217 Q144.2617,29.5698 144.2617,26.4487 Q144.2617,23.3193 145.5815,21.6675 Q146.9014,20.0156 149.4082,20.0156 Q150.1138,20.0156 150.7612,20.165 Q151.4087,20.3145 151.9731,20.6133 L151.9731,23.3359 Q151.3423,22.7549 150.7488,22.4851 Q150.1553,22.2153 149.5244,22.2153 Q148.1797,22.2153 147.4949,23.282 Q146.8101,24.3486 146.8101,26.4487 Q146.8101,28.5405 147.4949,29.6072 Q148.1797,30.6738 149.5244,30.6738 Q150.1553,30.6738 150.7488,30.4041 Q151.3423,30.1343 151.9731,29.5532 Z " fill="#000000"/><text fill="#000000" font-family="sans-serif" font-size="14" lengthAdjust="spacing" textLength="47" x="168.5" y="25.5352">JFrame</text><text fill="#000000" font-family="sans-serif" font-size="10" lengthAdjust="spacing" textLength="57" x="163.5" y="38.1563">javax.swing</text></g><!--reverse link javax.swing.JFrame to ib.grapher.PlottableTable--><g id="link_javax.swing.JFrame_ib.grapher.PlottableTable"><path codeLine="21" d="M179,63.47 C179,78.07 179,81.86 179,105.2 " fill="none" id="javax.swing.JFrame-backto-ib.grapher.PlottableTable" style="stroke:#181818;stroke-width:1.0;"/><polygon fill="none" points="179,45.47,173,63.47,185,63.47,179,45.47" style="stroke:#181818;stroke-width:1.0;"/></g><text fill="#888888" font-family="sans-serif" font-size="10" lengthAdjust="spacing" textLength="176" x="84" y="356.5647">UMLDoclet 2.1.2, PlantUML 1.2024.3</text><!--SRC=[VL9DQm8n4BttLmn2GR66AZqjuaaiY89WFLaFenbtKxB9aiJjztzlihRkhclD8M7UUpEJ-G00iEH0OKesmnqjAKE3JXjGMj6Dfo4Hd83IpBt3Nf3azXnDoINQmmM-asWjj8PMV53KVnWjf7OEjvAUmlMiVedxaTYos62Ma6a1MYXDLdU1zReEiCIbShE1po9VE3sE3fVaR0GpOTtmf1zxV5JAKXHgWOfa1DFYBQbO7YY2YP2Ip0djShtAV6ngToB8jU0bivE4fWaZvxNaxPhLa1jATKvNFEQa3WslcDpuj-3mWsibTsr5Uq5uAVRyhqiX-5cV0l_eMnMeIhE-Byz-EZ5-hoepVy4StvXz5IekXbwnsL5y3DJ4OVZLw_s_9CVqf1mPs6iTdjLyDjP-J0u6hCy6Tx2Gg9n7uJOdOuLMxSuF]--></g></svg>