<?xml version="1.0" encoding="us-ascii" standalone="no"?><svg xmlns="http://www.w3.org/2000/svg" xmlns:xlink="http://www.w3.org/1999/xlink" contentStyleType="text/css" height="714px" preserveAspectRatio="none" style="width:281px;height:714px;background:#FFFFFF;" version="1.1" viewBox="0 0 281 714" width="281px" zoomAndPan="magnify"><defs/><g><!--class ib.grapher.PlottableData--><a href="PlottableData.html" target="_top" title="PlottableData.html" xlink:actuate="onRequest" xlink:href="PlottableData.html" xlink:show="new" xlink:title="PlottableData.html" xlink:type="simple"><g id="elem_ib.grapher.PlottableData"><rect codeLine="5" fill="#F1F1F1" height="680.8203" id="ib.grapher.PlottableData" rx="2.5" ry="2.5" style="stroke:#181818;stroke-width:0.5;" width="260" x="7" y="7"/><ellipse cx="87.25" cy="26.1328" fill="#ADD1B2" rx="11" ry="11" style="stroke:#181818;stroke-width:1.0;"/><path d="M89.7231,32.2759 Q89.1421,32.5747 88.5029,32.7241 Q87.8638,32.8735 87.1582,32.8735 Q84.6514,32.8735 83.3315,31.2217 Q82.0117,29.5698 82.0117,26.4487 Q82.0117,23.3193 83.3315,21.6675 Q84.6514,20.0156 87.1582,20.0156 Q87.8638,20.0156 88.5112,20.165 Q89.1587,20.3145 89.7231,20.6133 L89.7231,23.3359 Q89.0923,22.7549 88.4988,22.4851 Q87.9053,22.2153 87.2744,22.2153 Q85.9297,22.2153 85.2449,23.282 Q84.5601,24.3486 84.5601,26.4487 Q84.5601,28.5405 85.2449,29.6072 Q85.9297,30.6738 87.2744,30.6738 Q87.9053,30.6738 88.4988,30.4041 Q89.0923,30.1343 89.7231,29.5532 Z " fill="#000000"/><text fill="#000000" font-family="sans-serif" font-size="14" lengthAdjust="spacing" textLength="91" x="107.75" y="25.5352">PlottableData</text><text fill="#000000" font-family="sans-serif" font-size="10" lengthAdjust="spacing" textLength="50" x="128.25" y="38.1563">ib.grapher</text><line style="stroke:#181818;stroke-width:0.5;" x1="8" x2="266" y1="45.2656" y2="45.2656"/><rect fill="none" height="6" style="stroke:#C82930;stroke-width:1.0;" width="6" x="15" y="56.0098"/><text fill="#000000" font-family="sans-serif" font-size="14" lengthAdjust="spacing" textLength="176" x="27" y="62.8008">menu: PlottableDataMenu</text><rect fill="none" height="6" style="stroke:#C82930;stroke-width:1.0;" width="6" x="15" y="72.498"/><text fill="#000000" font-family="sans-serif" font-size="14" lengthAdjust="spacing" textLength="87" x="27" y="79.2891">name: String</text><rect fill="none" height="6" style="stroke:#C82930;stroke-width:1.0;" width="6" x="15" y="88.9863"/><text fill="#000000" font-family="sans-serif" font-size="14" lengthAdjust="spacing" textLength="90" x="27" y="95.7773">colour: Color</text><rect fill="none" height="6" style="stroke:#C82930;stroke-width:1.0;" width="6" x="15" y="105.4746"/><text fill="#000000" font-family="sans-serif" font-size="14" lengthAdjust="spacing" textLength="88" x="27" y="112.2656">dataX: Series</text><rect fill="none" height="6" style="stroke:#C82930;stroke-width:1.0;" width="6" x="15" y="121.9629"/><text fill="#000000" font-family="sans-serif" font-size="14" lengthAdjust="spacing" textLength="88" x="27" y="128.7539">dataY: Series</text><rect fill="none" height="6" style="stroke:#C82930;stroke-width:1.0;" width="6" x="15" y="138.4512"/><text fill="#000000" font-family="sans-serif" font-size="14" lengthAdjust="spacing" textLength="122" x="27" y="145.2422">errorBarsX: Series</text><rect fill="none" height="6" style="stroke:#C82930;stroke-width:1.0;" width="6" x="15" y="154.9395"/><text fill="#000000" font-family="sans-serif" font-size="14" lengthAdjust="spacing" textLength="122" x="27" y="161.7305">errorBarsY: Series</text><rect fill="none" height="6" style="stroke:#C82930;stroke-width:1.0;" width="6" x="15" y="171.4277"/><text fill="#000000" font-family="sans-serif" font-size="14" lengthAdjust="spacing" textLength="103" x="27" y="178.2188">active: boolean</text><rect fill="none" height="6" style="stroke:#C82930;stroke-width:1.0;" width="6" x="15" y="187.916"/><text fill="#000000" font-family="sans-serif" font-size="14" lengthAdjust="spacing" textLength="148" x="27" y="194.707">linRegActive: boolean</text><rect fill="none" height="6" style="stroke:#C82930;stroke-width:1.0;" width="6" x="15" y="204.4043"/><text fill="#000000" font-family="sans-serif" font-size="14" lengthAdjust="spacing" textLength="134" x="27" y="211.1953">XAgainstY: boolean</text><rect fill="none" height="6" style="stroke:#C82930;stroke-width:1.0;" width="6" x="15" y="220.8926"/><text fill="#000000" font-family="sans-serif" font-size="14" lengthAdjust="spacing" textLength="64" x="27" y="227.6836">a: double</text><rect fill="none" height="6" style="stroke:#C82930;stroke-width:1.0;" width="6" x="15" y="237.3809"/><text fill="#000000" font-family="sans-serif" font-size="14" lengthAdjust="spacing" textLength="65" x="27" y="244.1719">b: double</text><rect fill="none" height="6" style="stroke:#C82930;stroke-width:1.0;" width="6" x="15" y="253.8691"/><text fill="#000000" font-family="sans-serif" font-size="14" lengthAdjust="spacing" textLength="62" x="27" y="260.6602">r: double</text><line style="stroke:#181818;stroke-width:0.5;" x1="8" x2="266" y1="267.6133" y2="267.6133"/><ellipse cx="18" cy="281.3574" fill="#84BE84" rx="3" ry="3" style="stroke:#038048;stroke-width:1.0;"/><text fill="#000000" font-family="sans-serif" font-size="14" lengthAdjust="spacing" textLength="77" x="27" y="285.1484">save(): void</text><ellipse cx="18" cy="297.8457" fill="#84BE84" rx="3" ry="3" style="stroke:#038048;stroke-width:1.0;"/><text fill="#000000" font-family="sans-serif" font-size="14" lengthAdjust="spacing" textLength="183" x="27" y="301.6367">doLinearRegression(): void</text><ellipse cx="18" cy="314.334" fill="#84BE84" rx="3" ry="3" style="stroke:#038048;stroke-width:1.0;"/><text fill="#000000" font-family="sans-serif" font-size="14" lengthAdjust="spacing" textLength="207" x="27" y="318.125">getMenu(): PlottableDataMenu</text><ellipse cx="18" cy="330.8223" fill="#84BE84" rx="3" ry="3" style="stroke:#038048;stroke-width:1.0;"/><text fill="#000000" font-family="sans-serif" font-size="14" lengthAdjust="spacing" textLength="234" x="27" y="334.6133">setMenu(PlottableDataMenu): void</text><ellipse cx="18" cy="347.3105" fill="#84BE84" rx="3" ry="3" style="stroke:#038048;stroke-width:1.0;"/><text fill="#000000" font-family="sans-serif" font-size="14" lengthAdjust="spacing" textLength="120" x="27" y="351.1016">getName(): String</text><ellipse cx="18" cy="363.7988" fill="#84BE84" rx="3" ry="3" style="stroke:#038048;stroke-width:1.0;"/><text fill="#000000" font-family="sans-serif" font-size="14" lengthAdjust="spacing" textLength="147" x="27" y="367.5898">setName(String): void</text><ellipse cx="18" cy="380.2871" fill="#84BE84" rx="3" ry="3" style="stroke:#038048;stroke-width:1.0;"/><text fill="#000000" font-family="sans-serif" font-size="14" lengthAdjust="spacing" textLength="125" x="27" y="384.0781">getColour(): Color</text><ellipse cx="18" cy="396.7754" fill="#84BE84" rx="3" ry="3" style="stroke:#038048;stroke-width:1.0;"/><text fill="#000000" font-family="sans-serif" font-size="14" lengthAdjust="spacing" textLength="152" x="27" y="400.5664">setColour(Color): void</text><ellipse cx="18" cy="413.2637" fill="#84BE84" rx="3" ry="3" style="stroke:#038048;stroke-width:1.0;"/><text fill="#000000" font-family="sans-serif" font-size="14" lengthAdjust="spacing" textLength="121" x="27" y="417.0547">getDataX(): Series</text><ellipse cx="18" cy="429.752" fill="#84BE84" rx="3" ry="3" style="stroke:#038048;stroke-width:1.0;"/><text fill="#000000" font-family="sans-serif" font-size="14" lengthAdjust="spacing" textLength="148" x="27" y="433.543">setDataX(Series): void</text><ellipse cx="18" cy="446.2402" fill="#84BE84" rx="3" ry="3" style="stroke:#038048;stroke-width:1.0;"/><text fill="#000000" font-family="sans-serif" font-size="14" lengthAdjust="spacing" textLength="121" x="27" y="450.0313">getDataY(): Series</text><ellipse cx="18" cy="462.7285" fill="#84BE84" rx="3" ry="3" style="stroke:#038048;stroke-width:1.0;"/><text fill="#000000" font-family="sans-serif" font-size="14" lengthAdjust="spacing" textLength="148" x="27" y="466.5195">setDataY(Series): void</text><ellipse cx="18" cy="479.2168" fill="#84BE84" rx="3" ry="3" style="stroke:#038048;stroke-width:1.0;"/><text fill="#000000" font-family="sans-serif" font-size="14" lengthAdjust="spacing" textLength="154" x="27" y="483.0078">getErrorBarsX(): Series</text><ellipse cx="18" cy="495.7051" fill="#84BE84" rx="3" ry="3" style="stroke:#038048;stroke-width:1.0;"/><text fill="#000000" font-family="sans-serif" font-size="14" lengthAdjust="spacing" textLength="181" x="27" y="499.4961">setErrorBarsX(Series): void</text><ellipse cx="18" cy="512.1934" fill="#84BE84" rx="3" ry="3" style="stroke:#038048;stroke-width:1.0;"/><text fill="#000000" font-family="sans-serif" font-size="14" lengthAdjust="spacing" textLength="154" x="27" y="515.9844">getErrorBarsY(): Series</text><ellipse cx="18" cy="528.6816" fill="#84BE84" rx="3" ry="3" style="stroke:#038048;stroke-width:1.0;"/><text fill="#000000" font-family="sans-serif" font-size="14" lengthAdjust="spacing" textLength="181" x="27" y="532.4727">setErrorBarsY(Series): void</text><ellipse cx="18" cy="545.1699" fill="#84BE84" rx="3" ry="3" style="stroke:#038048;stroke-width:1.0;"/><text fill="#000000" font-family="sans-serif" font-size="14" lengthAdjust="spacing" textLength="126" x="27" y="548.9609">isActive(): boolean</text><ellipse cx="18" cy="561.6582" fill="#84BE84" rx="3" ry="3" style="stroke:#038048;stroke-width:1.0;"/><text fill="#000000" font-family="sans-serif" font-size="14" lengthAdjust="spacing" textLength="164" x="27" y="565.4492">setActive(boolean): void</text><ellipse cx="18" cy="578.1465" fill="#84BE84" rx="3" ry="3" style="stroke:#038048;stroke-width:1.0;"/><text fill="#000000" font-family="sans-serif" font-size="14" lengthAdjust="spacing" textLength="172" x="27" y="581.9375">isLinRegActive(): boolean</text><ellipse cx="18" cy="594.6348" fill="#84BE84" rx="3" ry="3" style="stroke:#038048;stroke-width:1.0;"/><text fill="#000000" font-family="sans-serif" font-size="14" lengthAdjust="spacing" textLength="210" x="27" y="598.4258">setLinRegActive(boolean): void</text><ellipse cx="18" cy="611.123" fill="#84BE84" rx="3" ry="3" style="stroke:#038048;stroke-width:1.0;"/><text fill="#000000" font-family="sans-serif" font-size="14" lengthAdjust="spacing" textLength="155" x="27" y="614.9141">isXAgainstY(): boolean</text><ellipse cx="18" cy="627.6113" fill="#84BE84" rx="3" ry="3" style="stroke:#038048;stroke-width:1.0;"/><text fill="#000000" font-family="sans-serif" font-size="14" lengthAdjust="spacing" textLength="193" x="27" y="631.4023">setXAgainstY(boolean): void</text><ellipse cx="18" cy="644.0996" fill="#84BE84" rx="3" ry="3" style="stroke:#038048;stroke-width:1.0;"/><text fill="#000000" font-family="sans-serif" font-size="14" lengthAdjust="spacing" textLength="98" x="27" y="647.8906">getA(): double</text><ellipse cx="18" cy="660.5879" fill="#84BE84" rx="3" ry="3" style="stroke:#038048;stroke-width:1.0;"/><text fill="#000000" font-family="sans-serif" font-size="14" lengthAdjust="spacing" textLength="96" x="27" y="664.3789">getB(): double</text><ellipse cx="18" cy="677.0762" fill="#84BE84" rx="3" ry="3" style="stroke:#038048;stroke-width:1.0;"/><text fill="#000000" font-family="sans-serif" font-size="14" lengthAdjust="spacing" textLength="97" x="27" y="680.8672">getR(): double</text></g></a><text fill="#888888" font-family="sans-serif" font-size="10" lengthAdjust="spacing" textLength="176" x="48.5" y="704.4883">UMLDoclet 2.1.2, PlantUML 1.2024.3</text><!--SRC=[ZPHFIyD04CNlVef141Grg7WA8bJhhHLHX8RQmpGPquNDRfdT5bJyxkucmJH_jffBoE_DUzdiJ1O0m905XGMPDQRqGcjaj9f1QKK7JeQLo0YeMDiFU1SaCzEb1TcLThZagKHZuF36Y4-ABwzldwIs5fUIncZnJTNyubOievnnlI8-13JGF4Oj1ypdhUTePGkvMC1N-J9_dHUaDZ6qggOEDGN-us9uiInKtj1KIxtX6ExTdHkSEVlCLHCBCcsSz34nQxv3DhCzse0FKoksRb5BhIMXQWGfr3Fbev0y6-KebB79W8OnP7hZTg11opxY7ZerkANZanYsMcGDpVH4A49sos4oHcZLhyd9-gtsGdZ_JqrTrIiPodjqpV9vdNRva5Ag-93plcoezxPRwgsrLWf3Nh-YMVdQTgEyjz8g8UHDzdYJFTw7t_a91EmK_2Cb-Iibk1PXgfdp0Tt9yWcrMai3zidEu8P2MZNXgDyX3-Kq1Q4GjoaZx-wEkkDt0VxSuT_LSKRA4iExrlxsEfsCTIhTWNaLNKPNPsxgKLb7uMXBNFqZFm00]--></g></svg>