<?xml version="1.0" encoding="us-ascii" standalone="no"?><svg xmlns="http://www.w3.org/2000/svg" xmlns:xlink="http://www.w3.org/1999/xlink" contentStyleType="text/css" height="542px" preserveAspectRatio="none" style="width:256px;height:542px;background:#FFFFFF;" version="1.1" viewBox="0 0 256 542" width="256px" zoomAndPan="magnify"><defs/><g><!--class ib.grapher.Series--><a href="Series.html" target="_top" title="Series.html" xlink:actuate="onRequest" xlink:href="Series.html" xlink:show="new" xlink:title="Series.html" xlink:type="simple"><g id="elem_ib.grapher.Series"><rect codeLine="5" fill="#F1F1F1" height="384.0313" id="ib.grapher.Series" rx="2.5" ry="2.5" style="stroke:#181818;stroke-width:0.5;" width="242" x="7" y="132.76"/><ellipse cx="98.75" cy="151.8928" fill="#ADD1B2" rx="11" ry="11" style="stroke:#181818;stroke-width:1.0;"/><path d="M101.2231,158.0359 Q100.6421,158.3347 100.0029,158.4841 Q99.3638,158.6335 98.6582,158.6335 Q96.1514,158.6335 94.8315,156.9817 Q93.5117,155.3298 93.5117,152.2087 Q93.5117,149.0793 94.8315,147.4275 Q96.1514,145.7756 98.6582,145.7756 Q99.3638,145.7756 100.0112,145.925 Q100.6587,146.0745 101.2231,146.3733 L101.2231,149.0959 Q100.5923,148.5149 99.9988,148.2451 Q99.4053,147.9753 98.7744,147.9753 Q97.4297,147.9753 96.7449,149.042 Q96.0601,150.1086 96.0601,152.2087 Q96.0601,154.3005 96.7449,155.3672 Q97.4297,156.4338 98.7744,156.4338 Q99.4053,156.4338 99.9988,156.1641 Q100.5923,155.8943 101.2231,155.3132 Z " fill="#000000"/><text fill="#000000" font-family="sans-serif" font-size="14" lengthAdjust="spacing" textLength="41" x="123.75" y="151.2952">Series</text><text fill="#000000" font-family="sans-serif" font-size="10" lengthAdjust="spacing" textLength="50" x="119.25" y="163.9163">ib.grapher</text><line style="stroke:#181818;stroke-width:0.5;" x1="8" x2="248" y1="171.0256" y2="171.0256"/><rect fill="none" height="6" style="stroke:#C82930;stroke-width:1.0;" width="6" x="15" y="181.7698"/><text fill="#000000" font-family="sans-serif" font-size="14" lengthAdjust="spacing" textLength="87" x="27" y="188.5608">name: String</text><rect fill="none" height="6" style="stroke:#C82930;stroke-width:1.0;" width="6" x="15" y="198.258"/><text fill="#000000" font-family="sans-serif" font-size="14" lengthAdjust="spacing" textLength="87" x="27" y="205.0491">firstCell: Cell</text><rect fill="none" height="6" style="stroke:#C82930;stroke-width:1.0;" width="6" x="15" y="214.7463"/><text fill="#000000" font-family="sans-serif" font-size="14" lengthAdjust="spacing" textLength="84" x="27" y="221.5373">lastCell: Cell</text><rect fill="none" height="6" style="stroke:#C82930;stroke-width:1.0;" width="6" x="15" y="231.2346"/><text fill="#000000" font-family="sans-serif" font-size="14" lengthAdjust="spacing" textLength="216" x="27" y="238.0256">statistics: Map&lt;String, Double&gt;</text><rect fill="none" height="6" style="stroke:#C82930;stroke-width:1.0;" width="6" x="15" y="247.7229"/><text fill="#000000" font-family="sans-serif" font-size="14" lengthAdjust="spacing" textLength="146" x="27" y="254.5139">header: SeriesHeader</text><line style="stroke:#181818;stroke-width:0.5;" x1="8" x2="248" y1="261.467" y2="261.467"/><ellipse cx="18" cy="275.2112" fill="#84BE84" rx="3" ry="3" style="stroke:#038048;stroke-width:1.0;"/><text fill="#000000" font-family="sans-serif" font-size="14" lengthAdjust="spacing" textLength="69" x="27" y="279.0022">Series(int)</text><ellipse cx="18" cy="291.6995" fill="#84BE84" rx="3" ry="3" style="stroke:#038048;stroke-width:1.0;"/><text fill="#000000" font-family="sans-serif" font-size="14" lengthAdjust="spacing" textLength="168" x="27" y="295.4905">iterator(): Iterator&lt;Cell&gt;</text><ellipse cx="18" cy="308.1877" fill="#84BE84" rx="3" ry="3" style="stroke:#038048;stroke-width:1.0;"/><text fill="#000000" font-family="sans-serif" font-size="14" lengthAdjust="spacing" textLength="77" x="27" y="311.9788">save(): void</text><ellipse cx="18" cy="324.676" fill="#84BE84" rx="3" ry="3" style="stroke:#038048;stroke-width:1.0;"/><text fill="#000000" font-family="sans-serif" font-size="14" lengthAdjust="spacing" textLength="175" x="27" y="328.467">search(String): List&lt;Cell&gt;</text><ellipse cx="18" cy="341.1643" fill="#84BE84" rx="3" ry="3" style="stroke:#038048;stroke-width:1.0;"/><text fill="#000000" font-family="sans-serif" font-size="14" lengthAdjust="spacing" textLength="167" x="27" y="344.9553">calculateStatistics(): void</text><ellipse cx="18" cy="357.6526" fill="#84BE84" rx="3" ry="3" style="stroke:#038048;stroke-width:1.0;"/><text fill="#000000" font-family="sans-serif" font-size="14" lengthAdjust="spacing" textLength="80" x="27" y="361.4436">length(): int</text><ellipse cx="18" cy="374.1409" fill="#84BE84" rx="3" ry="3" style="stroke:#038048;stroke-width:1.0;"/><text fill="#000000" font-family="sans-serif" font-size="14" lengthAdjust="spacing" textLength="175" x="27" y="377.9319">getStatistic(String): String</text><ellipse cx="18" cy="390.6291" fill="#84BE84" rx="3" ry="3" style="stroke:#038048;stroke-width:1.0;"/><text fill="#000000" font-family="sans-serif" font-size="14" lengthAdjust="spacing" textLength="210" x="27" y="394.4202">getStatisticAsInt(String): String</text><ellipse cx="18" cy="407.1174" fill="#84BE84" rx="3" ry="3" style="stroke:#038048;stroke-width:1.0;"/><text fill="#000000" font-family="sans-serif" font-size="14" lengthAdjust="spacing" textLength="120" x="27" y="410.9084">getName(): String</text><ellipse cx="18" cy="423.6057" fill="#84BE84" rx="3" ry="3" style="stroke:#038048;stroke-width:1.0;"/><text fill="#000000" font-family="sans-serif" font-size="14" lengthAdjust="spacing" textLength="147" x="27" y="427.3967">setName(String): void</text><ellipse cx="18" cy="440.094" fill="#84BE84" rx="3" ry="3" style="stroke:#038048;stroke-width:1.0;"/><text fill="#000000" font-family="sans-serif" font-size="14" lengthAdjust="spacing" textLength="96" x="27" y="443.885">getFirst(): Cell</text><ellipse cx="18" cy="456.5823" fill="#84BE84" rx="3" ry="3" style="stroke:#038048;stroke-width:1.0;"/><text fill="#000000" font-family="sans-serif" font-size="14" lengthAdjust="spacing" textLength="123" x="27" y="460.3733">setFirst(Cell): void</text><ellipse cx="18" cy="473.0705" fill="#84BE84" rx="3" ry="3" style="stroke:#038048;stroke-width:1.0;"/><text fill="#000000" font-family="sans-serif" font-size="14" lengthAdjust="spacing" textLength="93" x="27" y="476.8616">getLast(): Cell</text><ellipse cx="18" cy="489.5588" fill="#84BE84" rx="3" ry="3" style="stroke:#038048;stroke-width:1.0;"/><text fill="#000000" font-family="sans-serif" font-size="14" lengthAdjust="spacing" textLength="120" x="27" y="493.3498">setLast(Cell): void</text><ellipse cx="18" cy="506.0471" fill="#84BE84" rx="3" ry="3" style="stroke:#038048;stroke-width:1.0;"/><text fill="#000000" font-family="sans-serif" font-size="14" lengthAdjust="spacing" textLength="179" x="27" y="509.8381">getHeader(): SeriesHeader</text></g></a><!--class java.lang.Iterable--><g id="elem_java.lang.Iterable"><rect codeLine="28" fill="#F1F1F1" height="62.7539" id="java.lang.Iterable" rx="2.5" ry="2.5" style="stroke:#181818;stroke-width:0.5;" width="177" x="39.5" y="10"/><ellipse cx="85.25" cy="29.1328" fill="#B4A7E5" rx="11" ry="11" style="stroke:#181818;stroke-width:1.0;"/><path d="M81.6777,25.3979 L81.6777,23.2397 L89.0571,23.2397 L89.0571,25.3979 L86.5918,25.3979 L86.5918,33.4746 L89.0571,33.4746 L89.0571,35.6328 L81.6777,35.6328 L81.6777,33.4746 L84.1431,33.4746 L84.1431,25.3979 Z " fill="#000000"/><text fill="#000000" font-family="sans-serif" font-size="14" font-style="italic" lengthAdjust="spacing" textLength="52" x="105.75" y="28.5352">Iterable</text><text fill="#000000" font-family="sans-serif" font-size="10" font-style="italic" lengthAdjust="spacing" textLength="44" x="109.75" y="41.1563">java.lang</text><rect fill="#FFFFFF" height="16.1328" style="stroke:#181818;stroke-width:1.0;stroke-dasharray:2.0,2.0;" width="23" x="196.5" y="7"/><text fill="#000000" font-family="sans-serif" font-size="12" font-style="italic" lengthAdjust="spacing" textLength="21" x="197.5" y="19.6016">Cell</text><line style="stroke:#181818;stroke-width:0.5;" x1="40.5" x2="215.5" y1="48.2656" y2="48.2656"/><ellipse cx="50.5" cy="62.0098" fill="#84BE84" rx="3" ry="3" style="stroke:#038048;stroke-width:1.0;"/><text fill="#000000" font-family="sans-serif" font-size="14" font-style="italic" lengthAdjust="spacing" textLength="151" x="59.5" y="65.8008">iterator(): Iterator&lt;T&gt;</text></g><!--reverse link java.lang.Iterable to ib.grapher.Series--><g id="link_java.lang.Iterable_ib.grapher.Series"><path codeLine="32" d="M128,91.03 C128,106.84 128,109.58 128,132.37 " fill="none" id="java.lang.Iterable-backto-ib.grapher.Series" style="stroke:#181818;stroke-width:1.0;stroke-dasharray:7.0,7.0;"/><polygon fill="none" points="128,73.03,122,91.03,134,91.03,128,73.03" style="stroke:#181818;stroke-width:1.0;"/></g><text fill="#888888" font-family="sans-serif" font-size="10" lengthAdjust="spacing" textLength="176" x="33" y="532.4592">UMLDoclet 2.1.2, PlantUML 1.2024.3</text><!--SRC=[VLFRQjj047tlLmo1WapIfGbz4iOG4a83JWcuVKhpC9R7qeRrhjYP69hBlsSlZYJVgWTfzvmviqSxCm00J08MLyGjLZIZ5ZsAys2TfI-1XaOl26ZLoZzOQZ8BtaLN98qBSC8hWynmCcRzGkNvZycCl2R-QpV0zucUgzfZsv0_0MJejog7miD3NgX6LkRn4LvJtlXyYpPBc8dNjkxHfVOiLsHC2V7T4y7AGPm5HRFeYakumtQS4vx1jNkU6vhqWGtXWdmuCHdwcNOTUvhHGbiPzQ0MIlTNZ4gutQp7yVW-xIdZcYA_TdenG0bzrHJPJ62dmUAkia9JFHiKcdM_i9_8aAsbYNYmriCrIQVgJzcvpAseIxwryj_GNw4WnG6ADrIdtNOOb3UnQ56wLPeep4o43-ccU4IMY6EgNBhaTBUKxxblmrMHNuO96FHkgb_eY47tFk4QbK5Rf-RjTkepD1TiqBElE6VnMCdxaTxuFHdQsCy8upUbziSa3nj5rx1qBdx-t4slNMN2E5-eStLn1lSXaGGKlgx9itQs67q0]--></g></svg>